<svg xmlns="http://www.w3.org/2000/svg" xmlns:xlink="http://www.w3.org/1999/xlink" viewBox="0 0 1800 384"><style>.st0{display:none;} .st1{display:none;fill:#352576;} .st2{fill:#C6E5FC;} .st3{fill:#2F5957;} .st4{display:inline;} .st5{fill:#4D9081;} .st6{fill:#6EB6B5;} .st7{fill:none;stroke:#A35E7D;stroke-width:2.5;stroke-miterlimit:10;} .st8{fill:#FA7D8E;} .st9{fill:#A35E7D;} .st10{fill:#A18078;} .st11{fill:#B7AEAF;} .st12{fill:#A0D4FA;} .st13{fill:#4FB5F7;} .st14{fill:#F7F7F7;} .st15{fill:#E3E3E3;} .st16{fill:#ED5144;} .st17{fill:#FEF387;} .st18{fill:#C43122;} .st19{fill:#FDCB39;} .st20{fill:#F0F2F4;} .st21{fill:#C8C9CA;} .st22{fill:#FEDB02;} .st23{fill:#FFF067;} .st24{fill:#A0D5FB;} .st25{fill:#4FB5F6;} .st26{fill:#449C4D;} .st27{fill:#209CE9;} .st28{fill:#75C3F8;} .st29{fill:#F8F7F7;} .st30{fill:#C9C9C9;} .st31{fill:#C3C3C3;} .st32{fill:#747474;} .st33{fill:#F48732;} .st34{fill:#FBBD22;} .st35{fill:#FDBA1A;} .st36{fill:#F8EF32;} .st37{fill:#F79228;} .st38{fill:#FB9128;} .st39{fill:#F6BC30;} .st40{fill:#FEDE18;} .st41{fill:none;stroke:#F79228;stroke-miterlimit:10;} .st42{fill:#EF6D61;} .st43{fill:#EB5142;} .st44{fill:#CF3830;} .st45{fill:#FFFFFF;} .st46{fill:#F5922C;} .st47{fill:#B0312B;} .st48{fill:#FDD592;} .st49{fill:#FEE5BF;} .st50{fill:#F1A08A;} .st51{fill:#D37D7A;} .st52{fill:#F1F1F1;} .st53{clip-path:url(#SVGID_2_);fill:#747474;} .st54{clip-path:url(#SVGID_4_);fill:#747474;} .st55{fill:none;stroke:#54C5EF;stroke-miterlimit:10;} .st56{fill:#54C5EF;} .st57{fill:#50AC59;} .st58{fill:#206F2A;} .st59{fill:#76C47D;} .st60{clip-path:url(#SVGID_6_);fill:#747474;} .st61{clip-path:url(#SVGID_8_);fill:#747474;} .st62{fill:none;stroke:#6EB6B5;stroke-miterlimit:10;} .st63{fill:#5A93A4;} .st64{fill:#0B4848;} .st65{fill:#C33D1E;} .st66{fill:#F9FFFF;} .st67{fill:#9AD8D2;} .st68{fill:#ECE48D;} .st69{fill:#3CBBCE;}</style><g id="Layer_4"><path id="sea_2" d="M0 258.5h1800V384H0z" class="st13"/><path d="M0 0h1800v258.5H0z" class="st2"/><path d="M1458.8 301s-3.5-11.2 19-11.2h194.7s11.9 2.4 11.8-9.8c-.1-12.2 0-20.5 0-20.5l-232.8 19.2 7.3 22.3zm-126.1 31.3s-7.2 27.1 24.8 27.1h166s14.6 2 12.8-25.3c-1.7-27.3-203.6-1.8-203.6-1.8z" class="st57"/><path d="M388.6 258.7l-89.5-.2 41.5-29.7" class="st58"/><path d="M333.1 258.6l37-20.4 42.8 20.5z" class="st59"/><path d="M463.8 258.7l-97.4-.2 45.2-31.3" class="st57"/><path d="M506.4 258.7l-95.6-.2 44.3-49.3" class="st58"/><path d="M177.4 208.7l41.9-40.3m-33.4 40l33-34.4m-24.3 34.4l24.3-29m-16.1 28.5l16.5-21.9M209 207.8l9.9-14.4m-4.9 14.7l4.8-7.5m44.5 8.1l-42-40.3m33.4 40l-33-34.4m24.3 34.4l-24.3-29m16.1 28.5L221.3 186m10.3 21.8l-9.9-14.4m5 14.7l-4.9-7.5" class="st7"/><path d="M181.5 207.9h5v50.8h-5zm18.2 0h5v50.8h-5zm18.3-43.4h5v94.2h-5zm18.2 43.4h5v50.8h-5zm18.3 0h5v50.8h-5z" class="st8"/><path d="M174.8 207.4h91v5.2h-91z" class="st9"/><path d="M267.8 208.7l41.9-40.3m-33.4 40l33-34.4m-24.2 34.4l24.2-29m-16 28.5l16.5-21.9m-10.3 21.8l9.8-14.4m-4.9 14.7l4.9-7.5m44.4 8.1l-41.9-40.3m33.4 40l-33-34.4m24.2 34.4l-24.2-29m16.1 28.5L311.7 186m10.3 21.8l-9.8-14.4m4.9 14.7l-4.8-7.5" class="st7"/><path d="M271.9 207.9h5v50.8h-5zm18.3 0h5v50.8h-5zm18.2-43.4h5v94.2h-5zm18.3 43.4h5v50.8h-5zm18.2 0h5v50.8h-5z" class="st8"/><path d="M265.2 207.4h91v5.2h-91z" class="st9"/><path d="M164.9 224.7h1.4v34.2h-1.4z" class="st10"/><path d="M163.5 224.7h1.4v34.2h-1.4z" class="st11"/><path d="M177.5 227.6c-2.5-1.8-5.4-3.3-8.6-2.8-1.5.2-2.9.8-3.9 1.9-.3.3-.6.7-.8 1.1 0 0 .1 0 .1.1.1-.2.2-.4.4-.6.1-.1.2 0 .2.1v.3c.2-.3.3-.6.5-.8 0-.1.1-.1.2 0v.3c.2-.2.4-.4.7-.6.1 0 .1 0 .1.1s0 .2-.1.3c.2-.2.5-.4.8-.6.1 0 .1 0 .1.1s-.1.2-.1.3c.2-.1.4-.2.6-.4.1 0 .1 0 .1.1h.2c-.2-.2-.5-.3-.8-.4-.1 0 0-.2.1-.2.5.1 1.1.2 1.6.3-.1-.1-.3-.2-.4-.3-.1-.1 0-.2.1-.2.5.2 1 .4 1.5.5-.2-.2-.4-.3-.6-.4-.1-.1 0-.2.1-.2.1.1.2.1.3.2.4.2.7.4 1.1.6-.1-.3-.3-.6-.6-.8-.1-.1 0-.2.1-.1.5.3 1 .7 1.5 1-.1-.2-.1-.4-.2-.6 0-.1.1-.2.2-.1.3.4.7.8 1.2 1.1-.1-.3-.2-.5-.4-.8-.1-.1.1-.2.2-.1s.1.2.2.3c.3.4.7.8 1.1 1.1-.1-.3-.3-.6-.5-.9-.1-.1.1-.2.2-.1.4.6.9 1 1.5 1.5-.1-.3-.2-.6-.4-.8-.1-.1.1-.2.2-.1s.1.2.2.3c.3.3.5.6.8.9 0-.3-.1-.6-.2-.8 0-.1.1-.2.2-.1 0 .1.1.1.1.2.2.5.6.9 1 1.2l-.3-.6c-.1-.1.1-.2.2-.1.3.4.7.7 1.1.9-.4-.7-.6-1-.9-1.3z" class="st6"/><path d="M175.9 226c.3 0 .6-.1.9-.1-.4-.2-.9-.3-1.3-.3h-.4c-.1 0-.1-.2 0-.2.3-.1.7-.1 1-.1-.6-.3-1.3-.4-1.9-.3-.1 0-.2-.2 0-.2s.5-.1.7-.1c-.6-.2-1.2-.2-1.8-.1-.1 0-.2-.2 0-.2.3-.1.5-.2.8-.2-.5 0-1 0-1.5.2-.1 0-.2-.1-.1-.2.2-.1.3-.2.5-.3-.6 0-1.2.1-1.8.3-.1 0-.1 0-.1-.1v-.1c.3-.2.5-.4.7-.7-.6.2-1.1.5-1.6.9-.1.1-.3 0-.2-.1.2-.3.4-.5.6-.8-.4.2-.8.5-1.2.8-.1.1-.3 0-.2-.1.3-.3.5-.6.6-.9l-1.2 1.2c-.1.1-.2 0-.2-.1.1-.2.3-.5.4-.7-.5.4-.9.9-1.2 1.4-.1.1-.2 0-.2-.1.2-.3.3-.6.4-.9-.5.4-.9.9-1.3 1.4-.1.1-.2 0-.2-.1.1-.2.2-.4.2-.6-.3.3-.5.7-.7 1 0 .1-.1.2-.1.3-.1.1-.2.1-.2 0-.2.2-.4.5-.6.6h.2c.1 0 .1.1.1.1-.1.2-.3.3-.5.4.1 0 .1.1.1.1-.1.2-.3.4-.4.5h.1c.2-.3.4-.6.6-.8 1-1.1 2.3-1.7 3.8-2 2.1-.3 4.2.3 6.1 1.2.6.3 1.3.7 1.9 1.1.3.2.6.4.9.4l.9.3c-.2-.2-.5-.4-.7-.6-.3-.2-.7-.3-1-.3-.1 0-.1-.2 0-.2h.9c-.5-.4-1.1-.5-1.8-.5-.1 0-.1-.1 0-.2z" class="st5"/><path d="M176.1 233.7c-1.3-2.8-3.1-5.6-6.1-6.7-1.4-.5-2.9-.7-4.3-.2-.4.1-.8.3-1.2.5 0 0 .1.1 0 .1l.6-.3c.1 0 .2.1.1.1-.1.1-.1.2-.2.2.3-.2.6-.3.9-.5.1 0 .1 0 .1.1s-.1.2-.2.3c.3-.1.6-.2.9-.2.1 0 .1.1.1.1l-.2.2c.3-.1.6-.1 1-.1.1 0 .1.1.1.1l-.2.2h.7c.1 0 .1.1.1.1l.1.1c-.1-.3-.3-.5-.5-.7-.1-.1.1-.2.2-.1.4.3.8.7 1.3 1-.1-.2-.1-.3-.2-.5 0-.1.1-.2.2-.1.3.4.7.8 1.1 1.2l-.3-.6c-.1-.1.1-.2.2-.1s.1.2.2.3c.2.4.4.7.7 1.1 0-.3 0-.7-.2-1-.1-.1.1-.2.2-.1.3.5.5 1.1.8 1.6 0-.2.1-.4.1-.6 0-.1.2-.1.2 0 .1.5.2 1.1.5 1.6.1-.3.1-.6.1-.9 0-.1.2-.1.2 0v.3c.1.5.2 1 .4 1.5 0-.3.1-.7 0-1 0-.1.2-.1.2 0 .1.7.3 1.4.6 2 .1-.3.1-.6.1-.9 0-.1.2-.1.2 0v.4c.1.4.1.8.2 1.2.1-.3.2-.5.2-.8 0-.1.2-.1.2 0v.2c0 .5.1 1.1.3 1.6v-.7c0-.1.2-.1.2 0 .1.5.3.9.5 1.3 0-.5-.1-.9-.2-1.3z" class="st5"/><path d="M175.5 231.6c.3.1.5.2.8.3-.3-.4-.6-.7-1-.9-.1-.1-.3-.1-.4-.2-.1-.1 0-.2.1-.2.3.1.6.3 1 .4-.4-.5-.9-1-1.5-1.2-.1 0 0-.2.1-.2.2.1.5.2.7.2-.4-.4-.9-.8-1.5-1-.1 0 0-.2.1-.2.3.1.5.1.8.2-.4-.3-.9-.5-1.4-.6-.1 0-.1-.2 0-.2h.6c-.5-.3-1.1-.5-1.8-.6-.1 0-.1-.1-.1-.1s0-.1.1-.1c.3-.1.6-.1.9-.3-.6-.1-1.2-.1-1.8 0-.1 0-.2-.2-.1-.2.3-.1.6-.3 1-.4-.5 0-1 0-1.5.1-.1 0-.2-.2-.1-.2.4-.1.7-.3.9-.5-.5.1-1.1.3-1.6.4-.1 0-.2-.1-.1-.2.2-.1.5-.3.7-.4-.6.1-1.2.3-1.8.6-.1.1-.2-.1-.1-.2.3-.1.6-.3.8-.5-.6.1-1.3.3-1.9.6-.1.1-.2-.1-.1-.2.2-.1.3-.3.5-.4-.4.1-.8.3-1.1.5-.1.1-.2.1-.2.2-.1 0-.2 0-.1-.1-.3.1-.5.2-.8.2.1 0 .1.1.2.1s.1.1 0 .2c-.2.1-.4.1-.6.1.1 0 .1.1 0 .2l-.6.3c.1 0 .1 0 .1.1.3-.2.6-.3.9-.4 1.4-.4 2.9-.4 4.2.2 2 .8 3.5 2.3 4.7 4.1.4.6.8 1.2 1.1 1.9.2.3.3.6.6.8l.7.7c-.1-.3-.2-.6-.3-.8-.2-.3-.4-.6-.7-.7-.1-.1 0-.2.1-.2.3.1.6.3.8.4-.3-.6-.7-1-1.3-1.3-.2-.2-.1-.4 0-.3z" class="st3"/><path d="M172.1 216.2c-2.7 1.4-5.5 3.2-6.6 6.3-.5 1.4-.6 2.9-.1 4.3.1.4.3.8.6 1.2 0 0 .1-.1.1 0l-.3-.6c0-.1.1-.2.1-.1.1.1.2.1.2.2-.2-.3-.3-.6-.5-.8 0-.1 0-.1.1-.1s.2.1.3.2c-.1-.3-.2-.6-.2-.9 0-.1.1-.1.1-.1l.2.2c-.1-.3-.1-.6-.1-1 0-.1.1-.1.1-.1l.2.2v-.7c0-.1.1-.1.1-.1l.1-.1c-.3.1-.5.3-.7.5-.1.1-.2-.1-.1-.1.3-.4.7-.9 1-1.3-.2.1-.3.1-.5.2-.1 0-.2-.1-.1-.2.4-.3.8-.7 1.1-1.1l-.6.3c-.1.1-.2-.1-.1-.2s.2-.1.3-.2c.4-.2.7-.5 1-.7-.3 0-.7 0-1 .2-.1.1-.2-.1-.1-.2.5-.3 1.1-.6 1.6-.9-.2 0-.4-.1-.6-.1-.1 0-.1-.2 0-.2.5-.1 1.1-.3 1.5-.5-.3-.1-.6-.1-.9 0-.1 0-.2-.2 0-.2h.3c.5-.1 1-.2 1.5-.5h-1c-.1 0-.2-.2 0-.2.7-.1 1.4-.3 2-.6-.3-.1-.6-.1-.9 0-.1 0-.1-.2 0-.2h.4l1.2-.3c-.3-.1-.5-.2-.8-.2-.1 0-.1-.2 0-.2h.2c.5 0 1.1-.1 1.6-.3h-.7c-.1 0-.1-.2 0-.2.5-.1.9-.3 1.3-.6-.5-.2-.9-.1-1.3 0z" class="st5"/><path d="M170 216.9c.1-.3.2-.5.3-.8-.4.3-.7.6-.9 1-.1.1-.1.3-.2.4-.1.1-.2 0-.2-.1.1-.3.2-.7.4-1-.5.4-.9.9-1.2 1.6 0 .1-.2.1-.2-.1.1-.2.1-.5.2-.7-.4.4-.7 1-1 1.5 0 .1-.2.1-.2-.1 0-.3.1-.5.2-.8-.3.4-.5.9-.5 1.4 0 .1-.2.1-.2 0v-.6c-.3.6-.5 1.1-.6 1.8 0 .1-.1.1-.1.1s-.1 0-.1-.1l-.3-.9c-.1.6-.1 1.2.1 1.8 0 .1-.1.2-.2.1-.1-.3-.3-.6-.4-.9 0 .5 0 1 .1 1.4 0 .1-.2.2-.2.1-.1-.4-.3-.7-.5-.9.2.5.3 1.1.5 1.6 0 .1-.1.2-.2.1-.1-.2-.3-.5-.4-.7.1.6.3 1.2.6 1.8.1.1-.1.2-.2.1-.2-.3-.3-.6-.6-.8.1.6.4 1.2.7 1.8.1.1-.1.2-.2.1-.1-.2-.3-.3-.4-.5.2.4.4.7.6 1.1.1.1.1.2.2.2 0 .1 0 .2-.1.2.1.3.2.5.3.8 0-.1 0-.1.1-.2 0-.1.1-.1.2 0 .1.2.1.4.2.6 0-.1.1-.1.2 0l.3.6c0-.1 0-.1.1-.1-.2-.3-.3-.6-.4-.9-.5-1.4-.5-2.9 0-4.3.7-2 2.2-3.6 4-4.8.6-.4 1.2-.8 1.8-1.1.3-.2.6-.3.8-.6.2-.3.4-.4.6-.7-.3.1-.5.2-.8.4-.3.2-.5.4-.7.8-.1.1-.2 0-.2-.1.1-.3.3-.6.4-.9-.6.3-1 .8-1.3 1.3-.3.2-.4.1-.4 0z" class="st3"/><path d="M177.7 219.9c-3-.4-6.3-.3-8.9 1.6-1.2.9-2.1 2.1-2.5 3.5-.1.4-.2.9-.2 1.3h.1c0-.2 0-.5.1-.7 0-.1.1-.1.2 0 0 .1.1.2.1.3v-1c0-.1.1-.1.1 0 .1.1.1.2.2.3l.3-.9c0-.1.1-.1.2 0 0 .1.1.2.1.3.1-.3.3-.6.4-.9 0-.1.1-.1.1 0v.3l.3-.6c0-.1.1-.1.1 0l.1-.1h-.9c-.1 0-.1-.2 0-.2.5-.2 1-.4 1.5-.5-.2 0-.3-.1-.5-.1-.1 0-.1-.2 0-.2.5 0 1-.1 1.6-.3-.2-.1-.5-.1-.7-.1-.1 0-.1-.2 0-.2h1.7c-.3-.2-.6-.3-.9-.4-.1 0-.1-.2 0-.2.6.1 1.2.1 1.8.2-.2-.1-.3-.3-.5-.5-.1-.1 0-.2.1-.2.5.2 1 .4 1.6.4-.2-.2-.5-.4-.7-.5-.1-.1 0-.2.1-.2s.2.1.3.1c.5.2 1 .4 1.5.4-.3-.2-.5-.4-.8-.6-.1-.1 0-.2.1-.2.6.3 1.3.5 2 .6-.2-.2-.5-.4-.7-.5-.1-.1 0-.2.1-.2s.2.1.3.2c.4.1.8.3 1.1.4l-.6-.6c-.1-.1 0-.2.1-.1.1 0 .1.1.2.1.4.3 1 .5 1.5.6-.2-.1-.4-.3-.6-.4-.1-.1 0-.2.1-.2.5.2.9.3 1.4.2-.3 0-.6-.1-1-.2z" class="st3"/><path d="M175.6 219.2c.2-.2.5-.3.7-.5-.5 0-.9.1-1.3.4-.1.1-.2.2-.4.2-.1.1-.2-.1-.1-.2.3-.2.6-.4.8-.6-.7.1-1.3.3-1.8.7-.1.1-.2-.1-.1-.2.2-.2.4-.3.6-.5-.6.1-1.1.4-1.6.7-.1.1-.2-.1-.1-.2l.6-.6c-.5.2-.9.5-1.2.9-.1.1-.2 0-.2-.1.1-.2.2-.3.3-.5-.5.3-1 .7-1.4 1.2 0 .1-.1 0-.1 0v-.1c.1-.3.2-.6.2-.9-.4.4-.8 1-1 1.6 0 .1-.2.1-.2 0 .1-.3.1-.7.2-1-.3.4-.5.8-.7 1.3 0 .1-.3.1-.2 0 .1-.4.1-.7.1-1.1-.2.5-.3 1.1-.5 1.6 0 .1-.2.1-.2 0v-.8c-.3.6-.4 1.2-.4 1.8 0 .1-.2.1-.2 0v-1c-.2.6-.4 1.2-.5 1.9 0 .1-.2.1-.2 0 0-.2 0-.4-.1-.6-.1.4-.1.8-.1 1.2v.3c0 .1-.1.1-.2.1 0 .3-.1.6-.2.8.1 0 .1-.1.2-.1s.1 0 .1.1c-.1.2-.1.4-.2.6.1 0 .1 0 .1.1 0 .2-.1.4-.1.7 0-.1.1-.1.1 0 0-.3.1-.7.2-1 .4-1.4 1.2-2.6 2.4-3.5 1.7-1.3 3.8-1.8 6-1.8.7 0 1.5 0 2.2.1h1c.3-.1.6-.1.9-.2-.3-.1-.6-.1-.9-.2-.4 0-.7.1-1 .2-.1.1-.2-.1-.1-.2.3-.2.5-.3.8-.5-.6-.1-1.3.1-1.8.4-.5-.2-.6-.4-.4-.5z" class="st6"/><path d="M154.3 216.8c.5.2.9.2 1.4.1.1 0 .2.2 0 .2s-.5.1-.7.2c.5 0 1.1 0 1.6-.2.1 0 .1-.1.2-.1.1-.1.2.1.1.2-.3.1-.5.3-.7.5.4 0 .8-.1 1.2-.1.1 0 .2-.1.4-.1.1 0 .2.2 0 .2l-.9.3c.7.1 1.4.1 2.1 0 .1 0 .2.2 0 .2-.3.1-.7.2-1 .3.5.1 1.1.1 1.6 0 .1 0 .2-.1.3-.1.1 0 .2.2 0 .2-.3.1-.6.2-.8.3.5.1 1.1.1 1.6 0 .1 0 .2.1.1.2l-.6.3 1.8.3c.1 0 .1.2 0 .2-.4-.1-.7 0-1 .1.4.2.8.3 1.2.4.1 0 .2 0 .4.1.1 0 .1.2-.1.2s-.5-.1-.7-.1c.5.3.9.5 1.4.7.1 0 .1.2 0 .2h-.5c.5.3.9.6 1.4.9.1.1 0 .2-.1.2l-.9-.3.1.1h.1c.1.2.1.4.2.7 0-.1.1-.2.1-.3 0-.1.1 0 .1 0 .1.3.2.6.2 1 0-.1.1-.2.1-.2 0-.1.1 0 .2 0 .1.3.1.6.1.9.1-.1.2-.2.3-.2.1-.1.2 0 .1.1-.1.3-.1.6-.2 1 .1-.1.1-.2.2-.2.1-.1.2 0 .2.1 0 .2 0 .5-.1.7h.1c.1-.4.2-.9.2-1.3 0-1.5-.6-3-1.5-4.1-2-2.6-5.2-3.5-8.3-3.9-.2-.2-.6-.1-1 .1z" class="st5"/><path d="M157.6 216.6c-.4-.5-1-.8-1.7-.9.2.2.4.5.7.7.1.1-.1.2-.1.1-.3-.2-.6-.4-.9-.5-.3 0-.6-.1-.9-.1.3.2.5.3.8.4.3.2.6.2.9.3.7.1 1.4.3 2.1.5 2.1.6 4 1.7 5.4 3.4.9 1.2 1.4 2.6 1.4 4.1 0 .3 0 .7-.1 1 .1 0 .1 0 .1.1 0-.2.1-.4.1-.7 0-.1.1-.1.1-.1v-.6c0-.1.1-.1.1-.1 0 .1.1.1.1.2-.1-.3-.1-.6 0-.9-.1 0-.2 0-.2-.1s0-.2.1-.3c.1-.4.2-.8.2-1.2-.1.2-.2.4-.2.6 0 .1-.2.1-.2 0 .1-.7.1-1.3.1-2l-.3.9c0 .1-.2.1-.2 0 .1-.6.2-1.3.1-1.9-.1.3-.1.6-.2.8 0 .1-.2.1-.2 0 0-.6-.1-1.1-.1-1.7-.2.3-.2.7-.2 1.1 0 .1-.2.1-.2 0 0-.5-.1-1-.3-1.4 0 .3-.1.7-.1 1 0 .1-.2.1-.2 0 0-.6-.2-1.2-.5-1.8-.1.3-.1.7 0 1v.1h-.1c-.3-.6-.6-1.1-1.1-1.5.1.2.1.4.2.6 0 .1-.1.2-.2.1-.3-.5-.6-.9-1-1.2.1.2.3.5.4.7.1.1-.1.2-.2.1-.4-.5-.9-.9-1.4-1.2.1.2.3.4.4.6.1.1-.1.2-.2.1-.4-.5-1-.9-1.6-1.1.2.3.5.5.7.8.1.1-.1.2-.1.1l-.3-.3c-.3-.3-.7-.5-1.2-.7.2.2.4.4.6.7-.2.2-.3.3-.4.2z" class="st6"/><path d="M151.2 221.3c.5 0 1-.1 1.4-.4.1-.1.2.1.1.2-.2.1-.4.2-.6.4.5-.1 1-.4 1.5-.7l.2-.2c.1-.1.2 0 .1.1-.2.2-.4.4-.5.7.4-.2.7-.3 1.1-.5.1-.1.2-.1.3-.2.1-.1.2.1.1.2-.3.2-.5.4-.7.6.7-.2 1.4-.4 2-.7.1-.1.2.1.1.2-.3.2-.6.4-.8.6.5-.1 1-.3 1.5-.5.1-.1.2-.1.3-.2.1-.1.2.1.1.2-.3.2-.5.4-.7.6.5-.1 1.1-.3 1.5-.6.1-.1.2.1.1.2-.1.2-.3.3-.4.5l1.8-.3c.1 0 .2.2.1.2-.3.1-.6.2-.9.5.4 0 .9 0 1.3-.1.1 0 .2 0 .4-.1.1 0 .1.2 0 .2-.2 0-.5.1-.7.2.5.1 1.1.2 1.6.2.1 0 .2.2 0 .2-.2.1-.3.1-.5.1.5.1 1.1.3 1.6.4.1 0 .1.2 0 .2h-.9c.1 0 .1 0 .2.1 0-.1.1-.1.2 0 .1.2.3.4.4.6v-.3c0-.1.1-.1.1 0 .2.3.4.5.5.8v-.3c0-.1.1-.1.2 0 .2.3.3.5.4.8 0-.1.1-.2.2-.3 0-.1.1 0 .2 0 0 .3.1.7.1 1 0-.1 0-.2.1-.3 0-.1.1-.1.2 0 .1.2.1.5.2.7 0-.1.1-.1.1 0 0-.4-.2-.9-.3-1.3-.5-1.4-1.5-2.6-2.8-3.4-2.8-1.7-6.1-1.5-9.1-.9-.7.1-1.1.3-1.4.6z" class="st5"/><path d="M154.2 220c-.6-.3-1.2-.4-1.9-.3.3.1.6.3.9.4.1.1 0 .2-.1.2-.3-.1-.7-.2-1-.2-.3.1-.6.1-.9.2.3 0 .6.1.9.1.3.1.6 0 1 0 .7-.1 1.4-.2 2.2-.2 2.2-.1 4.4.2 6.2 1.3 1.3.8 2.2 2 2.7 3.4.1.3.2.6.3 1h.1c0-.2-.1-.4-.1-.7 0-.1.1-.1.1-.1l-.3-.6c0-.1.1-.1.1-.1.1 0 .1.1.2.1-.2-.2-.3-.5-.3-.8 0 .1-.2 0-.2-.1v-.3c0-.4-.1-.8-.2-1.2v.6c0 .1-.2.2-.2 0-.1-.7-.3-1.3-.6-1.9 0 .3 0 .7.1 1 0 .1-.2.2-.2 0-.1-.6-.3-1.2-.6-1.8 0 .3.1.6.1.8 0 .1-.2.1-.2 0-.2-.5-.4-1-.7-1.6-.1.4 0 .7.1 1.1.1.1-.2.2-.2.1-.2-.5-.5-.9-.8-1.2.1.3.2.7.3 1 0 .1-.2.2-.2.1-.2-.6-.6-1.1-1.1-1.5l.3.9v.1s-.1.1-.1 0c-.5-.4-1-.8-1.6-1.1.1.2.2.3.3.5.1.1-.1.2-.2.1-.4-.4-.8-.6-1.3-.8.2.2.4.4.6.5.1.1 0 .2-.1.2-.5-.3-1.1-.5-1.7-.6.2.1.4.3.6.4.1.1 0 .2-.1.2-.6-.4-1.2-.5-1.9-.5.3.2.6.4.9.5.1.1 0 .2-.1.2-.1-.1-.3-.1-.4-.2-.4-.2-.9-.3-1.3-.2.3.1.5.3.8.4 0 .5-.1.6-.2.6z" class="st3"/><path d="M151.4 227.1c.5-.2.9-.4 1.2-.8.1-.1.2 0 .2.1-.2.2-.3.4-.4.6.4-.3.9-.7 1.1-1.1 0-.1.1-.1.1-.2.1-.1.2 0 .2.1-.1.3-.2.5-.3.8.3-.3.6-.6.9-.8.1-.1.1-.2.2-.3.1-.1.2 0 .2.1-.2.2-.4.5-.5.8.6-.4 1.1-.8 1.6-1.3.1-.1.2 0 .2.1-.2.3-.4.5-.5.8.5-.3.9-.6 1.2-1 .1-.1.1-.2.2-.2.1-.1.2 0 .2.1-.2.2-.3.5-.5.8.5-.3.9-.6 1.3-1 .1-.1.2 0 .2.1l-.3.6c.5-.3 1.1-.6 1.6-.9.1-.1.2.1.1.2-.3.2-.5.4-.7.7.4-.1.8-.3 1.2-.5.1-.1.2-.1.3-.2.1-.1.2.1.1.2-.2.1-.4.2-.6.4l1.5-.3c.1 0 .2.1.1.2s-.3.2-.4.3c.5 0 1.1-.1 1.6-.1.1 0 .2.2 0 .2-.3.1-.6.2-.8.3h.2c0-.1.1-.1.1-.1.2.1.4.3.5.4 0-.1-.1-.2-.1-.3 0-.1.1-.1.1-.1.3.2.5.4.7.6v-.3c0-.1.1-.1.1-.1.2.2.5.4.6.7v-.3c0-.1.1-.1.2 0 .1.3.3.6.4.9v-.3c0-.1.1-.1.2-.1.2.2.3.4.4.6 0-.1.1-.1.1-.1-.2-.4-.4-.8-.7-1.1-.9-1.2-2.3-1.9-3.7-2.3-3.1-.7-6.2.6-8.8 2.1-.3.4-.6.7-.8 1z" class="st6"/><path d="M153.8 225c-.6-.1-1.3 0-1.8.3.3 0 .6.1.9.1.1 0 .1.2 0 .2-.4 0-.7 0-1 .2-.3.2-.5.3-.7.5.3-.1.6-.1.9-.2.3-.1.6-.2.9-.4.6-.4 1.3-.6 2-.9 2-.8 4.1-1.2 6.2-.7 1.4.4 2.7 1.1 3.6 2.3.2.3.4.5.6.8 0-.1.1-.1.1 0l-.3-.6c0-.1 0-.1.1-.1-.2-.1-.3-.3-.4-.5 0-.1 0-.1.1-.1h.2c-.2-.2-.4-.4-.5-.7 0 .1-.1.1-.2 0 0-.1-.1-.2-.1-.3-.2-.4-.4-.7-.6-1.1.1.2.1.4.2.6 0 .1-.1.2-.2.1-.3-.6-.7-1.1-1.2-1.6.1.3.2.6.4.9.1.1-.1.2-.2.1-.3-.6-.7-1.1-1.1-1.5.1.2.2.5.4.7.1.1-.1.2-.2.1-.4-.4-.7-.8-1.1-1.3.1.4.2.7.5 1 .1.1-.1.2-.2.1-.3-.4-.7-.7-1.1-.9l.6.9c.1.1-.1.2-.2.1-.4-.5-.9-.8-1.5-1 .2.3.4.5.6.8v.1c0 .1-.1.1-.1.1-.6-.3-1.2-.4-1.8-.5.2.1.3.2.5.3.1.1 0 .2-.1.2-.5-.2-1-.3-1.5-.3.3.1.5.2.8.3.1 0 .1.2-.1.2-.6-.1-1.2-.1-1.8 0 .2.1.5.1.7.2.1 0 .1.2-.1.2-.7-.1-1.3-.1-2 .1.3.1.7.1 1 .2.1 0 .1.2 0 .2s-.3 0-.4-.1c-.4 0-.9 0-1.3.2.3.1.6.1.8.2-.1.3-.2.5-.3.5z" class="st5"/><path d="M151.9 232c.4-.3.7-.7.9-1.1.1-.1.2-.1.2.1-.1.2-.2.4-.2.7.3-.4.6-.9.7-1.4v-.2c0-.1.2-.1.2 0 0 .3-.1.6 0 .9.2-.4.4-.7.6-1.1 0-.1.1-.2.1-.3.1-.1.2-.1.2.1-.1.3-.2.6-.2.9.4-.5.8-1.1 1.1-1.8.1-.1.2-.1.2.1-.1.3-.2.6-.2 1 .3-.4.6-.8.8-1.3 0-.1.1-.2.1-.3.1-.1.2-.1.2.1-.1.3-.2.6-.2.9.3-.4.6-.9.9-1.4 0-.1.2-.1.2 0v.7c.4-.4.8-.9 1.2-1.3.1-.1.2 0 .2.1-.2.3-.4.6-.4.9.3-.2.7-.5 1-.8l.3-.3c.1-.1.2.1.1.2-.2.2-.3.4-.4.5.5-.2.9-.5 1.3-.8.1-.1.2 0 .2.1-.1.1-.2.3-.3.4.5-.2 1-.4 1.5-.7.1 0 .2.1.1.2-.3.2-.5.4-.7.6h.2c0-.1 0-.1.1-.1.2.1.4.1.6.2-.1-.1-.1-.2-.2-.2 0-.1 0-.1.1-.1.3.1.6.2.9.4 0-.1-.1-.2-.1-.2 0-.1 0-.1.1-.1.3.1.6.2.8.4 0-.1-.1-.2-.1-.3 0-.1.1-.1.1-.1l.7.7c0-.1-.1-.2-.1-.3 0-.1.1-.2.1-.1.2.1.4.3.5.4 0-.1 0-.1.1-.1-.3-.3-.7-.6-1-.8-1.2-.8-2.8-1.1-4.2-.9-3.2.3-5.6 2.5-7.6 4.9-.4-.2-.6.2-.7.6z" class="st6"/><path d="M153.5 229.2c-.6.1-1.2.4-1.6.9.3-.1.6-.1.9-.2.1 0 .2.2 0 .2-.3.1-.7.3-.9.5-.2.2-.4.5-.5.7.3-.2.5-.3.8-.5.3-.2.5-.4.7-.6.5-.5 1-1 1.6-1.5 1.6-1.4 3.5-2.5 5.6-2.7 1.5-.1 2.9.2 4.1 1 .3.2.5.4.8.6 0-.1.1-.1.1-.1-.2-.1-.3-.3-.5-.4-.1 0 0-.1 0-.2-.2-.1-.4-.2-.5-.3-.1 0 0-.1 0-.2h.2c-.3-.1-.5-.2-.7-.4 0 .1-.1.1-.2.1l-.2-.2c-.3-.3-.6-.6-.9-.8.1.2.2.3.4.5.1.1 0 .2-.1.2-.5-.4-1-.8-1.6-1.1.2.3.4.5.6.7.1.1-.1.2-.1.2-.5-.4-1-.8-1.5-1l.6.6c.1.1 0 .2-.1.2-.5-.3-1-.5-1.5-.8.2.3.4.6.8.7.1.1 0 .2-.1.2-.4-.2-.9-.4-1.4-.5.3.2.5.4.8.6.1.1 0 .3-.1.2-.5-.3-1.1-.5-1.8-.5.2.2.5.4.8.5l.1.1c0 .1 0 .1-.1.1-.6-.1-1.2 0-1.9.1.2.1.4.1.6.2.1 0 .1.2 0 .2-.5 0-1 0-1.5.2h.8c.1 0 .1.2 0 .2-.6.1-1.2.3-1.7.6h.7c.1 0 .1.2 0 .2-.7.1-1.3.3-1.8.7.3 0 .7-.1 1-.1.1 0 .2.2 0 .2-.1 0-.3 0-.4.1-.4.1-.8.3-1.2.6.3 0 .6-.1.8-.1.2-.2.3 0 .1.1z" class="st3"/><path d="M158.8 218.6c.3.2.6.4 1 .4.1 0 .1.2 0 .2h-.5c.4.2.8.3 1.2.3h.2c.1 0 .1.1 0 .1-.2 0-.4.1-.6.1.3.1.6.1.9.2h.3c.1 0 .1.2 0 .2h-.7c.5.2 1 .4 1.5.5.1 0 .1.2 0 .2h-.8c.3.2.7.3 1.1.4h.2c.1 0 .1.2 0 .2h-.7c.4.2.8.3 1.2.4.1 0 .1.1 0 .2-.2 0-.3.1-.5.1.4.2.8.5 1.2.7.1 0 0 .2-.1.1-.2-.1-.5-.2-.7-.2.2.2.5.4.8.6.1 0 .2.1.2.1.1.1 0 .2-.1.1-.2-.1-.3-.2-.5-.2.3.3.5.6.9.8.1.1 0 .2-.1.1-.1 0-.2-.1-.4-.2.3.3.5.7.8 1 .1.1 0 .2-.1.1-.2-.2-.4-.3-.5-.4 0 0 0 .1.1.1 0 0 .1 0 .1.1v.5c0-.1.1-.1.1-.2 0 0 .1 0 .1.1 0 .2 0 .5-.1.7 0 0 .1-.1.2-.1 0 0 .1 0 .1.1 0 .2-.1.5-.2.7.1 0 .2-.1.2-.1.1 0 .1 0 .1.1-.1.2-.3.4-.4.6.1 0 .1-.1.2-.1s.1 0 .1.1c0 .2-.1.3-.2.5h.1c.2-.3.3-.6.4-.9.4-1.1.3-2.2-.1-3.3-.8-2.3-2.9-3.7-5-4.8-.3-.1-.7-.2-1-.2z" class="st6"/><path d="M161.2 219.3c-.2-.4-.5-.8-1-1l.3.6c0 .1-.1.1-.1.1-.1-.2-.3-.4-.5-.6l-.6-.3.5.5c.2.2.4.3.6.4.5.2.9.6 1.4.9 1.3.9 2.5 2.1 3 3.7.4 1.1.4 2.2 0 3.2-.1.2-.2.5-.3.7 0 0 .1 0 .1.1.1-.2.2-.3.2-.5 0 0 .1-.1.1 0 0-.2.1-.3.1-.5 0-.1.1-.1.1 0 0 0 0 .1.1.1 0-.2.1-.4.2-.6-.1 0-.1-.1-.1-.1 0-.1.1-.1.1-.2.2-.3.3-.5.4-.8-.1.1-.2.2-.3.4-.1.1-.2 0-.1-.1.2-.4.4-.9.5-1.4-.2.2-.3.4-.4.6 0 .1-.2 0-.1-.1.2-.4.4-.9.5-1.3-.1.2-.2.4-.3.5-.1.1-.2 0-.1-.1l.3-1.2c-.2.2-.3.4-.4.7 0 .1-.2 0-.2-.1.1-.4.1-.7.1-1.1-.1.2-.2.5-.3.7 0 .1-.2 0-.2-.1.1-.5.1-.9.1-1.4-.1.2-.2.5-.2.7 0 0 0 .1-.1.1h-.1c-.1-.5-.2-.9-.4-1.3v.4c0 .1-.1.1-.2 0-.1-.4-.2-.8-.4-1.1 0 .2.1.4.1.6 0 .1-.1.1-.2 0-.2-.4-.4-.8-.7-1.2.1.2.1.4.2.5 0 .1-.1.1-.2 0-.2-.5-.5-.9-.9-1.2.1.2.2.5.3.7 0 .1-.1.2-.1.1s-.1-.2-.1-.3c-.2-.3-.4-.6-.7-.8.1.2.2.4.2.6 0 .6-.1.6-.2.5z" class="st3"/><path d="M179 246.9h1.4v11.9H179z" class="st10"/><path d="M177.6 246.9h1.4v11.9h-1.4z" class="st11"/><path d="M195.4 236h1.4v22.7h-1.4z" class="st10"/><path d="M194 236h1.4v22.7H194z" class="st11"/><path d="M207.7 237.3c-2.5-1.8-5.4-3.3-8.6-2.8-1.5.2-2.9.8-3.9 1.9-.3.3-.6.7-.8 1.1 0 0 .1 0 .1.1.1-.2.2-.4.4-.6.1-.1.2 0 .2.1v.3c.2-.3.3-.6.5-.8 0-.1.1-.1.2 0v.3c.2-.2.4-.4.7-.6.1 0 .1 0 .1.1s0 .2-.1.3c.2-.2.5-.4.8-.6.1 0 .1 0 .1.1s-.1.2-.1.3c.2-.1.4-.2.6-.4.1 0 .1 0 .1.1h.2c-.2-.2-.5-.3-.8-.4-.1 0 0-.2.1-.2.5.1 1.1.2 1.6.3-.1-.1-.3-.2-.4-.3-.1-.1 0-.2.1-.2.5.2 1 .4 1.5.5-.2-.2-.4-.3-.6-.4-.1-.1 0-.2.1-.2.1.1.2.1.3.2.4.2.7.4 1.1.6-.1-.3-.3-.6-.6-.8-.1-.1 0-.2.1-.1.5.3 1 .7 1.5 1-.1-.2-.1-.4-.2-.6 0-.1.1-.2.2-.1.3.4.7.8 1.2 1.1-.1-.3-.2-.5-.4-.8-.1-.1.1-.2.2-.1s.1.2.2.3c.3.4.7.8 1.1 1.1-.1-.3-.3-.6-.5-.9-.1-.1.1-.2.2-.1.4.6.9 1 1.5 1.5-.1-.3-.2-.6-.4-.8-.1-.1.1-.2.2-.1s.1.2.2.3c.3.3.5.6.8.9 0-.3-.1-.6-.2-.8 0-.1.1-.2.2-.1 0 .1.1.1.1.2.2.5.6.9 1 1.2l-.3-.6c-.1-.1.1-.2.2-.1.3.4.7.7 1.1.9-.3-.7-.6-1-.9-1.3z" class="st6"/><path d="M206.2 235.7c.3 0 .6-.1.9-.1-.4-.2-.9-.3-1.3-.3h-.4c-.1 0-.1-.2 0-.2.3-.1.7-.1 1-.1-.6-.3-1.3-.4-1.9-.3-.1 0-.2-.2 0-.2s.5-.1.7-.1c-.6-.2-1.2-.2-1.8-.1-.1 0-.2-.2 0-.2.3-.1.5-.2.8-.2-.5 0-1 0-1.5.2-.1 0-.2-.1-.1-.2.2-.1.3-.2.5-.3-.6 0-1.2.1-1.8.3-.1 0-.1 0-.1-.1v-.1c.3-.2.5-.4.7-.7-.6.2-1.1.5-1.6.9-.1.1-.3 0-.2-.1.2-.3.4-.5.6-.8-.4.2-.8.5-1.2.8-.1.1-.3 0-.2-.1.3-.3.5-.6.6-.9l-1.2 1.2c-.1.1-.2 0-.2-.1.1-.2.3-.5.4-.7-.5.4-.9.9-1.2 1.4-.1.1-.2 0-.2-.1.2-.3.3-.6.4-.9-.5.4-.9.9-1.3 1.4-.1.1-.2 0-.2-.1.1-.2.2-.4.2-.6-.3.3-.5.7-.7 1 0 .1-.1.2-.1.3-.1.1-.2.1-.2 0-.2.2-.4.5-.6.6h.2c.1 0 .1.1.1.1-.1.2-.3.3-.5.4.1 0 .1.1.1.1-.1.2-.3.4-.4.5h.1c.2-.3.4-.6.6-.8 1-1.1 2.3-1.7 3.8-2 2.1-.3 4.2.3 6.1 1.2.6.3 1.3.7 1.9 1.1.3.2.6.4.9.4l.9.3c-.2-.2-.5-.4-.7-.6-.3-.2-.7-.3-1-.3-.1 0-.1-.2 0-.2h.9c-.5-.4-1.1-.5-1.8-.5-.1 0-.1-.2 0-.2z" class="st5"/><path d="M206.3 243.4c-1.3-2.8-3.1-5.6-6.1-6.7-1.4-.5-2.9-.7-4.3-.2-.4.1-.8.3-1.2.5 0 0 .1.1 0 .1l.6-.3c.1 0 .2.1.1.1-.1.1-.1.2-.2.2.3-.2.6-.3.9-.5.1 0 .1 0 .1.1s-.1.2-.2.3c.3-.1.6-.2.9-.2.1 0 .1.1.1.1l-.2.2c.3-.1.6-.1 1-.1.1 0 .1.1.1.1l-.2.2h.7c.1 0 .1.1.1.1l.1.1c-.1-.3-.3-.5-.5-.7-.1-.1.1-.2.2-.1.4.3.8.7 1.3 1-.1-.2-.1-.3-.2-.5 0-.1.1-.2.2-.1.3.4.7.8 1.1 1.2l-.3-.6c-.1-.1.1-.2.2-.1s.1.2.2.3c.2.4.4.7.7 1.1 0-.3 0-.7-.2-1-.1-.1.1-.2.2-.1.3.5.5 1.1.8 1.6 0-.2.1-.4.1-.6 0-.1.2-.1.2 0 .1.5.2 1.1.5 1.6.1-.3.1-.6.1-.9 0-.1.2-.1.2 0v.3c.1.5.2 1 .4 1.5 0-.3.1-.7 0-1 0-.1.2-.1.2 0 .1.7.3 1.4.6 2 .1-.3.1-.6.1-.9 0-.1.2-.1.2 0v.4c.1.4.1.8.2 1.2.1-.3.2-.5.2-.8 0-.1.2-.1.2 0v.2c0 .5.1 1.1.3 1.6v-.7c0-.1.2-.1.2 0 .1.5.3.9.5 1.3 0-.5 0-.9-.2-1.3z" class="st5"/><path d="M205.8 241.2c.3.1.5.2.8.3-.3-.4-.6-.7-1-.9-.1-.1-.3-.1-.4-.2-.1-.1 0-.2.1-.2.3.1.6.3 1 .4-.4-.5-.9-1-1.5-1.2-.1 0 0-.2.1-.2.2.1.5.2.7.2-.4-.4-.9-.8-1.5-1-.1 0 0-.2.1-.2.3.1.5.1.8.2-.4-.3-.9-.5-1.4-.6-.1 0-.1-.2 0-.2h.6c-.5-.3-1.1-.5-1.8-.6-.1 0-.1-.1-.1-.1s0-.1.1-.1c.3-.1.6-.1.9-.3-.6-.1-1.2-.1-1.8 0-.1 0-.2-.2-.1-.2.3-.1.6-.3 1-.4-.5 0-1 0-1.5.1-.1 0-.2-.2-.1-.2.4-.1.7-.3.9-.5-.5.1-1.1.3-1.6.4-.1 0-.2-.1-.1-.2.2-.1.5-.3.7-.4-.6.1-1.2.3-1.8.6-.1.1-.2-.1-.1-.2.3-.1.6-.3.8-.5-.6.1-1.3.3-1.9.6-.1.1-.2-.1-.1-.2.2-.1.3-.3.5-.4-.4.1-.8.3-1.1.5-.1.1-.2.1-.2.2-.1 0-.2 0-.1-.1-.3.1-.5.2-.8.2.1 0 .1.1.2.1s.1.1 0 .2c-.2.1-.4.1-.6.1.1 0 .1.1 0 .2l-.6.3c.1 0 .1 0 .1.1.3-.2.6-.3.9-.4 1.4-.4 2.9-.4 4.2.2 2 .8 3.5 2.3 4.7 4.1.4.6.8 1.2 1.1 1.9.2.3.3.6.6.8l.7.7c-.1-.3-.2-.6-.3-.8-.2-.3-.4-.6-.7-.7-.1-.1 0-.2.1-.2.3.1.6.3.8.4-.3-.6-.7-1-1.3-1.3-.2-.1-.1-.3 0-.3z" class="st3"/><path d="M202.4 225.9c-2.7 1.4-5.5 3.2-6.6 6.3-.5 1.4-.6 2.9-.1 4.3.1.4.3.8.6 1.2 0 0 .1-.1.1 0l-.3-.6c0-.1.1-.2.1-.1.1.1.2.1.2.2-.2-.3-.3-.6-.5-.8 0-.1 0-.1.1-.1s.2.1.3.2c-.1-.3-.2-.6-.2-.9 0-.1.1-.1.1-.1l.2.2c-.1-.3-.1-.6-.1-1 0-.1.1-.1.1-.1l.2.2v-.7c0-.1.1-.1.1-.1l.1-.1c-.3.1-.5.3-.7.5-.1.1-.2-.1-.1-.1.3-.4.7-.9 1-1.3-.2.1-.3.1-.5.2-.1 0-.2-.1-.1-.2.4-.3.8-.7 1.1-1.1l-.6.3c-.1.1-.2-.1-.1-.2s.2-.1.3-.2c.4-.2.7-.5 1-.7-.3 0-.7 0-1 .2-.1.1-.2-.1-.1-.2.5-.3 1.1-.6 1.6-.9-.2 0-.4-.1-.6-.1-.1 0-.1-.2 0-.2.5-.1 1.1-.3 1.5-.5-.3-.1-.6-.1-.9 0-.1 0-.2-.2 0-.2h.3c.5-.1 1-.2 1.5-.5h-1c-.1 0-.2-.2 0-.2.7-.1 1.4-.3 2-.6-.3-.1-.6-.1-.9 0-.1 0-.1-.2 0-.2h.4l1.2-.3c-.3-.1-.5-.2-.8-.2-.1 0-.1-.2 0-.2h.2c.5 0 1.1-.1 1.6-.3h-.7c-.1 0-.1-.2 0-.2.5-.1.9-.3 1.3-.6-.5-.2-.9-.1-1.3 0z" class="st5"/><path d="M200.3 226.5c.1-.3.2-.5.3-.8-.4.3-.7.6-.9 1-.1.1-.1.3-.2.4-.1.1-.2 0-.2-.1.1-.3.2-.7.4-1-.5.4-.9.9-1.2 1.6 0 .1-.2.1-.2-.1.1-.2.1-.5.2-.7-.4.4-.7 1-1 1.5 0 .1-.2.1-.2-.1 0-.3.1-.5.2-.8-.3.4-.5.9-.5 1.4 0 .1-.2.1-.2 0v-.6c-.3.6-.5 1.1-.6 1.8 0 .1-.1.1-.1.1s-.1 0-.1-.1l-.3-.9c-.1.6-.1 1.2.1 1.8 0 .1-.1.2-.2.1-.1-.3-.3-.6-.4-.9 0 .5 0 1 .1 1.4 0 .1-.2.2-.2.1-.1-.4-.3-.7-.5-.9.2.5.3 1.1.5 1.6 0 .1-.1.2-.2.1-.1-.2-.3-.5-.4-.7.1.6.3 1.2.6 1.8.1.1-.1.2-.2.1-.2-.3-.3-.6-.6-.8.1.6.4 1.2.7 1.8.1.1-.1.2-.2.1-.1-.2-.3-.3-.4-.5.2.4.4.7.6 1.1.1.1.1.2.2.2 0 .1 0 .2-.1.2.1.3.2.5.3.8 0-.1 0-.1.1-.2 0-.1.1-.1.2 0 .1.2.1.4.2.6 0-.1.1-.1.2 0l.3.6c0-.1 0-.1.1-.1-.2-.3-.3-.6-.4-.9-.5-1.4-.5-2.9 0-4.3.7-2 2.2-3.6 4-4.8.6-.4 1.2-.8 1.8-1.1.3-.2.6-.3.8-.6.2-.3.4-.4.6-.7-.3.1-.5.2-.8.4-.3.2-.5.4-.7.8-.1.1-.2 0-.2-.1.1-.3.3-.6.4-.9-.6.3-1 .8-1.3 1.3-.3.2-.5.1-.4 0z" class="st3"/><path d="M207.9 229.5c-3-.4-6.3-.3-8.9 1.6-1.2.9-2.1 2.1-2.5 3.5-.1.4-.2.9-.2 1.3h.1c0-.2 0-.5.1-.7 0-.1.1-.1.2 0 0 .1.1.2.1.3v-1c0-.1.1-.1.1 0 .1.1.1.2.2.3l.3-.9c0-.1.1-.1.2 0 0 .1.1.2.1.3.1-.3.3-.6.4-.9 0-.1.1-.1.1 0v.3l.3-.6c0-.1.1-.1.1 0l.1-.1h-.9c-.1 0-.1-.2 0-.2.5-.2 1-.4 1.5-.5-.2 0-.3-.1-.5-.1-.1 0-.1-.2 0-.2.5 0 1-.1 1.6-.3-.2-.1-.5-.1-.7-.1-.1 0-.1-.2 0-.2h1.7c-.3-.2-.6-.3-.9-.4-.1 0-.1-.2 0-.2.6.1 1.2.1 1.8.2-.2-.1-.3-.3-.5-.5-.1-.1 0-.2.1-.2.5.2 1 .4 1.6.4-.2-.2-.5-.4-.7-.5-.1-.1 0-.2.1-.2s.2.1.3.1c.5.2 1 .4 1.5.4-.3-.2-.5-.4-.8-.6-.1-.1 0-.2.1-.2.6.3 1.3.5 2 .6-.2-.2-.5-.4-.7-.5-.1-.1 0-.2.1-.2s.2.1.3.2c.4.1.8.3 1.1.4l-.6-.6c-.1-.1 0-.2.1-.1.1 0 .1.1.2.1.4.3 1 .5 1.5.6-.2-.1-.4-.3-.6-.4-.1-.1 0-.2.1-.2.5.2.9.3 1.4.2-.2.1-.6-.1-1-.2z" class="st3"/><path d="M205.8 228.9c.2-.2.5-.3.7-.5-.5 0-.9.1-1.3.4-.1.1-.2.2-.4.2-.1.1-.2-.1-.1-.2.3-.2.6-.4.8-.6-.7.1-1.3.3-1.8.7-.1.1-.2-.1-.1-.2.2-.2.4-.3.6-.5-.6.1-1.1.4-1.6.7-.1.1-.2-.1-.1-.2l.6-.6c-.5.2-.9.5-1.2.9-.1.1-.2 0-.2-.1.1-.2.2-.3.3-.5-.5.3-1 .7-1.4 1.2 0 .1-.1 0-.1 0v-.1c.1-.3.2-.6.2-.9-.4.4-.8 1-1 1.6 0 .1-.2.1-.2 0 .1-.3.1-.7.2-1-.3.4-.5.8-.7 1.3 0 .1-.3.1-.2 0 .1-.4.1-.7.1-1.1-.2.5-.3 1.1-.5 1.6 0 .1-.2.1-.2 0v-.8c-.3.6-.4 1.2-.4 1.8 0 .1-.2.1-.2 0v-1c-.2.6-.4 1.2-.5 1.9 0 .1-.2.1-.2 0 0-.2 0-.4-.1-.6-.1.4-.1.8-.1 1.2v.3c0 .1-.1.1-.2.1 0 .3-.1.6-.2.8.1 0 .1-.1.2-.1s.1 0 .1.1c-.1.2-.1.4-.2.6.1 0 .1 0 .1.1 0 .2-.1.4-.1.7 0-.1.1-.1.1 0 0-.3.1-.7.2-1 .4-1.4 1.2-2.6 2.4-3.5 1.7-1.3 3.8-1.8 6-1.8.7 0 1.5 0 2.2.1h1c.3-.1.6-.1.9-.2-.3-.1-.6-.1-.9-.2-.4 0-.7.1-1 .2-.1.1-.2-.1-.1-.2.3-.2.5-.3.8-.5-.6-.1-1.3.1-1.8.4-.4-.3-.5-.4-.4-.5z" class="st6"/><path d="M184.5 226.4c.5.2.9.2 1.4.1.1 0 .2.2 0 .2s-.5.1-.7.2c.5 0 1.1 0 1.6-.2.1 0 .1-.1.2-.1.1-.1.2.1.1.2-.3.1-.5.3-.7.5.4 0 .8-.1 1.2-.1.1 0 .2-.1.4-.1.1 0 .2.2 0 .2l-.9.3c.7.1 1.4.1 2.1 0 .1 0 .2.2 0 .2-.3.1-.7.2-1 .3.5.1 1.1.1 1.6 0 .1 0 .2-.1.3-.1.1 0 .2.2 0 .2-.3.1-.6.2-.8.3.5.1 1.1.1 1.6 0 .1 0 .2.1.1.2l-.6.3 1.8.3c.1 0 .1.2 0 .2-.4-.1-.7 0-1 .1.4.2.8.3 1.2.4.1 0 .2 0 .4.1.1 0 .1.2-.1.2s-.5-.1-.7-.1c.5.3.9.5 1.4.7.1 0 .1.2 0 .2h-.5c.5.3.9.6 1.4.9.1.1 0 .2-.1.2l-.9-.3.1.1h.1c.1.2.1.4.2.7 0-.1.1-.2.1-.3 0-.1.1 0 .1 0 .1.3.2.6.2 1 0-.1.1-.2.1-.2 0-.1.1 0 .2 0 .1.3.1.6.1.9.1-.1.2-.2.3-.2.1-.1.2 0 .1.1-.1.3-.1.6-.2 1 .1-.1.1-.2.2-.2.1-.1.2 0 .2.1 0 .2 0 .5-.1.7h.1c.1-.4.2-.9.2-1.3 0-1.5-.6-3-1.5-4.1-2-2.6-5.2-3.5-8.3-3.9-.1-.1-.6 0-1 .1z" class="st5"/><path d="M187.9 226.3c-.4-.5-1-.8-1.7-.9.2.2.4.5.7.7.1.1-.1.2-.1.1-.3-.2-.6-.4-.9-.5-.3 0-.6-.1-.9-.1.3.2.5.3.8.4.3.2.6.2.9.3.7.1 1.4.3 2.1.5 2.1.6 4 1.7 5.4 3.4.9 1.2 1.4 2.6 1.4 4.1 0 .3 0 .7-.1 1 .1 0 .1 0 .1.1 0-.2.1-.4.1-.7 0-.1.1-.1.1-.1v-.6c0-.1.1-.1.1-.1 0 .1.1.1.1.2-.1-.3-.1-.6 0-.9-.1 0-.2 0-.2-.1s0-.2.1-.3c.1-.4.2-.8.2-1.2-.1.2-.2.4-.2.6 0 .1-.2.1-.2 0 .1-.7.1-1.3.1-2l-.3.9c0 .1-.2.1-.2 0 .1-.6.2-1.3.1-1.9-.1.3-.1.6-.2.8 0 .1-.2.1-.2 0 0-.6-.1-1.1-.1-1.7-.2.3-.2.7-.2 1.1 0 .1-.2.1-.2 0 0-.5-.1-1-.3-1.4 0 .3-.1.7-.1 1 0 .1-.2.1-.2 0 0-.6-.2-1.2-.5-1.8-.1.3-.1.7 0 1v.1h-.1c-.3-.6-.6-1.1-1.1-1.5.1.2.1.4.2.6 0 .1-.1.2-.2.1-.3-.5-.6-.9-1-1.2.1.2.3.5.4.7.1.1-.1.2-.2.1-.4-.5-.9-.9-1.4-1.2.1.2.3.4.4.6.1.1-.1.2-.2.1-.4-.5-1-.9-1.6-1.1.2.3.5.5.7.8.1.1-.1.2-.1.1l-.3-.3c-.3-.3-.7-.5-1.2-.7.2.2.4.4.6.7-.2.1-.3.3-.4.2z" class="st6"/><path d="M181.4 230.9c.5 0 1-.1 1.4-.4.1-.1.2.1.1.2-.2.1-.4.2-.6.4.5-.1 1-.4 1.5-.7l.2-.2c.1-.1.2 0 .1.1-.2.2-.4.4-.5.7.4-.2.7-.3 1.1-.5.1-.1.2-.1.3-.2.1-.1.2.1.1.2-.3.2-.5.4-.7.6.7-.2 1.4-.4 2-.7.1-.1.2.1.1.2-.3.2-.6.4-.8.6.5-.1 1-.3 1.5-.5.1-.1.2-.1.3-.2.1-.1.2.1.1.2-.3.2-.5.4-.7.6.5-.1 1.1-.3 1.5-.6.1-.1.2.1.1.2-.1.2-.3.3-.4.5l1.8-.3c.1 0 .2.2.1.2-.3.1-.6.2-.9.5.4 0 .9 0 1.3-.1.1 0 .2 0 .4-.1.1 0 .1.2 0 .2-.2 0-.5.1-.7.2.5.1 1.1.2 1.6.2.1 0 .2.2 0 .2-.2.1-.3.1-.5.1.5.1 1.1.3 1.6.4.1 0 .1.2 0 .2h-.9c.1 0 .1 0 .2.1 0-.1.1-.1.2 0 .1.2.3.4.4.6v-.3c0-.1.1-.1.1 0 .2.3.4.5.5.8v-.3c0-.1.1-.1.2 0 .2.3.3.5.4.8 0-.1.1-.2.2-.3 0-.1.1 0 .2 0 0 .3.1.7.1 1 0-.1 0-.2.1-.3 0-.1.1-.1.2 0 .1.2.1.5.2.7 0-.1.1-.1.1 0 0-.4-.2-.9-.3-1.3-.5-1.4-1.5-2.6-2.8-3.4-2.8-1.7-6.1-1.5-9.1-.9-.7.1-1.1.3-1.4.6z" class="st5"/><path d="M184.5 229.7c-.6-.3-1.2-.4-1.9-.3.3.1.6.3.9.4.1.1 0 .2-.1.2-.3-.1-.7-.2-1-.2-.3.1-.6.1-.9.2.3 0 .6.1.9.1.3.1.6 0 1 0 .7-.1 1.4-.2 2.2-.2 2.2-.1 4.4.2 6.2 1.3 1.3.8 2.2 2 2.7 3.4.1.3.2.6.3 1h.1c0-.2-.1-.4-.1-.7 0-.1.1-.1.1-.1l-.3-.6c0-.1.1-.1.1-.1.1 0 .1.1.2.1-.2-.2-.3-.5-.3-.8 0 .1-.2 0-.2-.1v-.3c0-.4-.1-.8-.2-1.2v.6c0 .1-.2.2-.2 0-.1-.7-.3-1.3-.6-1.9 0 .3 0 .7.1 1 0 .1-.2.2-.2 0-.1-.6-.3-1.2-.6-1.8 0 .3.1.6.1.8 0 .1-.2.1-.2 0-.2-.5-.4-1-.7-1.6-.1.4 0 .7.1 1.1.1.1-.2.2-.2.1-.2-.5-.5-.9-.8-1.2.1.3.2.7.3 1 0 .1-.2.2-.2.1-.2-.6-.6-1.1-1.1-1.5l.3.9v.1s-.1.1-.1 0c-.5-.4-1-.8-1.6-1.1.1.2.2.3.3.5.1.1-.1.2-.2.1-.4-.4-.8-.6-1.3-.8.2.2.4.4.6.5.1.1 0 .2-.1.2-.5-.3-1.1-.5-1.7-.6.2.1.4.3.6.4.1.1 0 .2-.1.2-.6-.4-1.2-.5-1.9-.5.3.2.6.4.9.5.1.1 0 .2-.1.2-.1-.1-.3-.1-.4-.2-.4-.2-.9-.3-1.3-.2.3.1.5.3.8.4 0 .4-.1.6-.2.6z" class="st3"/><path d="M181.6 236.8c.5-.2.9-.4 1.2-.8.1-.1.2 0 .2.1-.2.2-.3.4-.4.6.4-.3.9-.7 1.1-1.1 0-.1.1-.1.1-.2.1-.1.2 0 .2.1-.1.3-.2.5-.3.8.3-.3.6-.6.9-.8.1-.1.1-.2.2-.3.1-.1.2 0 .2.1-.2.2-.4.5-.5.8.6-.4 1.1-.8 1.6-1.3.1-.1.2 0 .2.1-.2.3-.4.5-.5.8.5-.3.9-.6 1.2-1 .1-.1.1-.2.2-.2.1-.1.2 0 .2.1-.2.2-.3.5-.5.8.5-.3.9-.6 1.3-1 .1-.1.2 0 .2.1l-.3.6c.5-.3 1.1-.6 1.6-.9.1-.1.2.1.1.2-.3.2-.5.4-.7.7.4-.1.8-.3 1.2-.5.1-.1.2-.1.3-.2.1-.1.2.1.1.2-.2.1-.4.2-.6.4l1.5-.3c.1 0 .2.1.1.2s-.3.2-.4.3c.5 0 1.1-.1 1.6-.1.1 0 .2.2 0 .2-.3.1-.6.2-.8.3h.2c0-.1.1-.1.1-.1.2.1.4.3.5.4 0-.1-.1-.2-.1-.3 0-.1.1-.1.1-.1.3.2.5.4.7.6v-.3c0-.1.1-.1.1-.1.2.2.5.4.6.7v-.3c0-.1.1-.1.2 0 .1.3.3.6.4.9v-.3c0-.1.1-.1.2-.1.2.2.3.4.4.6 0-.1.1-.1.1-.1-.2-.4-.4-.8-.7-1.1-.9-1.2-2.3-1.9-3.7-2.3-3.1-.7-6.2.6-8.8 2.1-.3.3-.6.6-.8 1z" class="st6"/><path d="M184.1 234.6c-.6-.1-1.3 0-1.8.3.3 0 .6.1.9.1.1 0 .1.2 0 .2-.4 0-.7 0-1 .2-.3.2-.5.3-.7.5.3-.1.6-.1.9-.2.3-.1.6-.2.9-.4.6-.4 1.3-.6 2-.9 2-.8 4.1-1.2 6.2-.7 1.4.4 2.7 1.1 3.6 2.3.2.3.4.5.6.8 0-.1.1-.1.1 0l-.3-.6c0-.1 0-.1.1-.1-.2-.1-.3-.3-.4-.5 0-.1 0-.1.1-.1h.2c-.2-.2-.4-.4-.5-.7 0 .1-.1.1-.2 0 0-.1-.1-.2-.1-.3-.2-.4-.4-.7-.6-1.1.1.2.1.4.2.6 0 .1-.1.2-.2.1-.3-.6-.7-1.1-1.2-1.6.1.3.2.6.4.9.1.1-.1.2-.2.1-.3-.6-.7-1.1-1.1-1.5.1.2.2.5.4.7.1.1-.1.2-.2.1-.4-.4-.7-.8-1.1-1.3.1.4.2.7.5 1 .1.1-.1.2-.2.1-.3-.4-.7-.7-1.1-.9l.6.9c.1.1-.1.2-.2.1-.4-.5-.9-.8-1.5-1 .2.3.4.5.6.8v.1c0 .1-.1.1-.1.1-.6-.3-1.2-.4-1.8-.5.2.1.3.2.5.3.1.1 0 .2-.1.2-.5-.2-1-.3-1.5-.3.3.1.5.2.8.3.1 0 .1.2-.1.2-.6-.1-1.2-.1-1.8 0 .2.1.5.1.7.2.1 0 .1.2-.1.2-.7-.1-1.3-.1-2 .1.3.1.7.1 1 .2.1 0 .1.2 0 .2s-.3 0-.4-.1c-.4 0-.9 0-1.3.2.3.1.6.1.8.2-.2.4-.2.6-.3.5z" class="st5"/><path d="M182.2 241.7c.4-.3.7-.7.9-1.1.1-.1.2-.1.2.1-.1.2-.2.4-.2.7.3-.4.6-.9.7-1.4v-.2c0-.1.2-.1.2 0 0 .3-.1.6 0 .9.2-.4.4-.7.6-1.1 0-.1.1-.2.1-.3.1-.1.2-.1.2.1-.1.3-.2.6-.2.9.4-.5.8-1.1 1.1-1.8.1-.1.2-.1.2.1-.1.3-.2.6-.2 1 .3-.4.6-.8.8-1.3 0-.1.1-.2.1-.3.1-.1.2-.1.2.1-.1.3-.2.6-.2.9.3-.4.6-.9.9-1.4 0-.1.2-.1.2 0v.7c.4-.4.8-.9 1.2-1.3.1-.1.2 0 .2.1-.2.3-.4.6-.4.9.3-.2.7-.5 1-.8l.3-.3c.1-.1.2.1.1.2-.2.2-.3.4-.4.5.5-.2.9-.5 1.3-.8.1-.1.2 0 .2.1-.1.1-.2.3-.3.4.5-.2 1-.4 1.5-.7.1 0 .2.1.1.2-.3.2-.5.4-.7.6h.2c0-.1 0-.1.1-.1.2.1.4.1.6.2-.1-.1-.1-.2-.2-.2 0-.1 0-.1.1-.1.3.1.6.2.9.4 0-.1-.1-.2-.1-.2 0-.1 0-.1.1-.1.3.1.6.2.8.4 0-.1-.1-.2-.1-.3 0-.1.1-.1.1-.1l.7.7c0-.1-.1-.2-.1-.3 0-.1.1-.2.1-.1.2.1.4.3.5.4 0-.1 0-.1.1-.1-.3-.3-.7-.6-1-.8-1.2-.8-2.8-1.1-4.2-.9-3.2.3-5.6 2.5-7.6 4.9-.5-.2-.7.2-.7.6z" class="st6"/><path d="M183.8 238.8c-.6.1-1.2.4-1.6.9.3-.1.6-.1.9-.2.1 0 .2.2 0 .2-.3.1-.7.3-.9.5-.2.2-.4.5-.5.7.3-.2.5-.3.8-.5.3-.2.5-.4.7-.6.5-.5 1-1 1.6-1.5 1.6-1.4 3.5-2.5 5.6-2.7 1.5-.1 2.9.2 4.1 1 .3.2.5.4.8.6 0-.1.1-.1.1-.1-.2-.1-.3-.3-.5-.4-.1 0 0-.1 0-.2-.2-.1-.4-.2-.5-.3-.1 0 0-.1 0-.2h.2c-.3-.1-.5-.2-.7-.4 0 .1-.1.1-.2.1l-.2-.2c-.3-.3-.6-.6-.9-.8.1.2.2.3.4.5.1.1 0 .2-.1.2-.5-.4-1-.8-1.6-1.1.2.3.4.5.6.7.1.1-.1.2-.1.2-.5-.4-1-.8-1.5-1l.6.6c.1.1 0 .2-.1.2-.5-.3-1-.5-1.5-.8.2.3.4.6.8.7.1.1 0 .2-.1.2-.4-.2-.9-.4-1.4-.5.3.2.5.4.8.6.1.1 0 .3-.1.2-.5-.3-1.1-.5-1.8-.5.2.2.5.4.8.5l.1.1c0 .1 0 .1-.1.1-.6-.1-1.2 0-1.9.1.2.1.4.1.6.2.1 0 .1.2 0 .2-.5 0-1 0-1.5.2h.8c.1 0 .1.2 0 .2-.6.1-1.2.3-1.7.6h.7c.1 0 .1.2 0 .2-.7.1-1.3.3-1.8.7.3 0 .7-.1 1-.1.1 0 .2.2 0 .2-.1 0-.3 0-.4.1-.4.1-.8.3-1.2.6.3 0 .6-.1.8-.1.2-.1.2.1.1.1z" class="st3"/><path d="M189.1 228.3c.3.2.6.4 1 .4.1 0 .1.2 0 .2h-.5c.4.2.8.3 1.2.3h.2c.1 0 .1.1 0 .1-.2 0-.4.1-.6.1.3.1.6.1.9.2h.3c.1 0 .1.2 0 .2h-.7c.5.2 1 .4 1.5.5.1 0 .1.2 0 .2h-.8c.3.2.7.3 1.1.4h.2c.1 0 .1.2 0 .2h-.7c.4.2.8.3 1.2.4.1 0 .1.1 0 .2-.2 0-.3.1-.5.1.4.2.8.5 1.2.7.1 0 0 .2-.1.1-.2-.1-.5-.2-.7-.2.2.2.5.4.8.6.1 0 .2.1.2.1.1.1 0 .2-.1.1-.2-.1-.3-.2-.5-.2.3.3.5.6.9.8.1.1 0 .2-.1.1-.1 0-.2-.1-.4-.2.3.3.5.7.8 1 .1.1 0 .2-.1.1-.2-.2-.4-.3-.5-.4 0 0 0 .1.1.1 0 0 .1 0 .1.1v.5c0-.1.1-.1.1-.2 0 0 .1 0 .1.1 0 .2 0 .5-.1.7 0 0 .1-.1.2-.1 0 0 .1 0 .1.1 0 .2-.1.5-.2.7.1 0 .2-.1.2-.1.1 0 .1 0 .1.1-.1.2-.3.4-.4.6.1 0 .1-.1.2-.1s.1 0 .1.1c0 .2-.1.3-.2.5h.1c.2-.3.3-.6.4-.9.4-1.1.3-2.2-.1-3.3-.8-2.3-2.9-3.7-5-4.8-.4-.1-.7-.2-1-.2z" class="st6"/><path d="M191.5 229c-.2-.4-.5-.8-1-1l.3.6c0 .1-.1.1-.1.1-.1-.2-.3-.4-.5-.6l-.6-.3.5.5c.2.2.4.3.6.4.5.2.9.6 1.4.9 1.3.9 2.5 2.1 3 3.7.4 1.1.4 2.2 0 3.2-.1.2-.2.5-.3.7 0 0 .1 0 .1.1.1-.2.2-.3.2-.5 0 0 .1-.1.1 0 0-.2.1-.3.1-.5 0-.1.1-.1.1 0 0 0 0 .1.1.1 0-.2.1-.4.2-.6-.1 0-.1-.1-.1-.1 0-.1.1-.1.1-.2.2-.3.3-.5.4-.8-.1.1-.2.2-.3.4-.1.1-.2 0-.1-.1.2-.4.4-.9.5-1.4-.2.2-.3.4-.4.6 0 .1-.2 0-.1-.1.2-.4.4-.9.5-1.3-.1.2-.2.4-.3.5-.1.1-.2 0-.1-.1l.3-1.2c-.2.2-.3.4-.4.7 0 .1-.2 0-.2-.1.1-.4.1-.7.1-1.1-.1.2-.2.5-.3.7 0 .1-.2 0-.2-.1.1-.5.1-.9.1-1.4-.1.2-.2.5-.2.7 0 0 0 .1-.1.1h-.1c-.1-.5-.2-.9-.4-1.3v.4c0 .1-.1.1-.2 0-.1-.4-.2-.8-.4-1.1 0 .2.1.4.1.6 0 .1-.1.1-.2 0-.2-.4-.4-.8-.7-1.2.1.2.1.4.2.5 0 .1-.1.1-.2 0-.2-.5-.5-.9-.9-1.2.1.2.2.5.3.7 0 .1-.1.2-.1.1s-.1-.2-.1-.3c-.2-.3-.4-.6-.7-.8.1.2.2.4.2.6-.1.5-.2.6-.2.5z" class="st3"/><path d="M191.5 248c-2.5-1.8-5.4-3.3-8.6-2.8-1.5.2-2.9.8-3.9 1.9-.3.3-.6.7-.8 1.1 0 0 .1 0 .1.1.1-.2.2-.4.4-.6.1-.1.2 0 .2.1v.3c.2-.3.3-.6.5-.8 0-.1.1-.1.2 0v.3c.2-.2.4-.4.7-.6.1 0 .1 0 .1.1s0 .2-.1.3c.2-.2.5-.4.8-.6.1 0 .1 0 .1.1s-.1.2-.1.3c.2-.1.4-.2.6-.4.1 0 .1 0 .1.1h.2c-.2-.2-.5-.3-.8-.4-.1 0 0-.2.1-.2.5.1 1.1.2 1.6.3-.1-.1-.3-.2-.4-.3-.1-.1 0-.2.1-.2.5.2 1 .4 1.5.5-.2-.2-.4-.3-.6-.4-.1-.1 0-.2.1-.2.1.1.2.1.3.2.4.2.7.4 1.1.6-.1-.3-.3-.6-.6-.8-.1-.1 0-.2.1-.1.5.3 1 .7 1.5 1-.1-.2-.1-.4-.2-.6 0-.1.1-.2.2-.1.3.4.7.8 1.2 1.1-.1-.3-.2-.5-.4-.8-.1-.1.1-.2.2-.1s.1.2.2.3c.3.4.7.8 1.1 1.1-.1-.3-.3-.6-.5-.9-.1-.1.1-.2.2-.1.4.6.9 1 1.5 1.5-.1-.3-.2-.6-.4-.8-.1-.1.1-.2.2-.1s.1.2.2.3c.3.3.5.6.8.9 0-.3-.1-.6-.2-.8 0-.1.1-.2.2-.1 0 .1.1.1.1.2.2.5.6.9 1 1.2l-.3-.6c-.1-.1.1-.2.2-.1.3.4.7.7 1.1.9-.4-.7-.6-1-.9-1.3z" class="st6"/><path d="M189.9 246.5c.3 0 .6-.1.9-.1-.4-.2-.9-.3-1.3-.3h-.4c-.1 0-.1-.2 0-.2.3-.1.7-.1 1-.1-.6-.3-1.3-.4-1.9-.3-.1 0-.2-.2 0-.2s.5-.1.7-.1c-.6-.2-1.2-.2-1.8-.1-.1 0-.2-.2 0-.2.3-.1.5-.2.8-.2-.5 0-1 0-1.5.2-.1 0-.2-.1-.1-.2.2-.1.3-.2.5-.3-.6 0-1.2.1-1.8.3-.1 0-.1 0-.1-.1v-.1c.3-.2.5-.4.7-.7-.6.2-1.1.5-1.6.9-.1.1-.3 0-.2-.1.2-.3.4-.5.6-.8-.4.2-.8.5-1.2.8-.1.1-.3 0-.2-.1.3-.3.5-.6.6-.9l-1.2 1.2c-.1.1-.2 0-.2-.1.1-.2.3-.5.4-.7-.5.4-.9.9-1.2 1.4-.1.1-.2 0-.2-.1.2-.3.3-.6.4-.9-.5.4-.9.9-1.3 1.4-.1.1-.2 0-.2-.1.1-.2.2-.4.2-.6-.3.3-.5.7-.7 1 0 .1-.1.2-.1.3-.1.1-.2.1-.2 0-.2.2-.4.5-.6.6h.2c.1 0 .1.1.1.1-.1.2-.3.3-.5.4.1 0 .1.1.1.1-.1.2-.3.4-.4.5h.1c.2-.3.4-.6.6-.8 1-1.1 2.3-1.7 3.8-2 2.1-.3 4.2.3 6.1 1.2.6.3 1.3.7 1.9 1.1.3.2.6.4.9.4l.9.3c-.2-.2-.5-.4-.7-.6-.3-.2-.7-.3-1-.3-.1 0-.1-.2 0-.2h.9c-.5-.4-1.1-.5-1.8-.5-.1 0-.1-.2 0-.2z" class="st5"/><path d="M190.1 254.1c-1.3-2.8-3.1-5.6-6.1-6.7-1.4-.5-2.9-.7-4.3-.2-.4.1-.8.3-1.2.5 0 0 .1.1 0 .1l.6-.3c.1 0 .2.1.1.1-.1.1-.1.2-.2.2.3-.2.6-.3.9-.5.1 0 .1 0 .1.1s-.1.2-.2.3c.3-.1.6-.2.9-.2.1 0 .1.1.1.1l-.2.2c.3-.1.6-.1 1-.1.1 0 .1.1.1.1l-.2.2h.7c.1 0 .1.1.1.1l.1.1c-.1-.3-.3-.5-.5-.7-.1-.1.1-.2.2-.1.4.3.8.7 1.3 1-.1-.2-.1-.3-.2-.5 0-.1.1-.2.2-.1.3.4.7.8 1.1 1.2l-.3-.6c-.1-.1.1-.2.2-.1s.1.2.2.3c.2.4.4.7.7 1.1 0-.3 0-.7-.2-1-.1-.1.1-.2.2-.1.3.5.5 1.1.8 1.6 0-.2.1-.4.1-.6 0-.1.2-.1.2 0 .1.5.2 1.1.5 1.6.1-.3.1-.6.1-.9 0-.1.2-.1.2 0v.3c.1.5.2 1 .4 1.5 0-.3.1-.7 0-1 0-.1.2-.1.2 0 .1.7.3 1.4.6 2 .1-.3.1-.6.1-.9 0-.1.2-.1.2 0v.4c.1.4.1.8.2 1.2.1-.3.2-.5.2-.8 0-.1.2-.1.2 0v.2c0 .5.1 1.1.3 1.6v-.7c0-.1.2-.1.2 0 .1.5.3.9.5 1.3 0-.5-.1-.9-.2-1.3z" class="st5"/><path d="M189.5 252c.3.1.5.2.8.3-.3-.4-.6-.7-1-.9-.1-.1-.3-.1-.4-.2-.1-.1 0-.2.1-.2.3.1.6.3 1 .4-.4-.5-.9-1-1.5-1.2-.1 0 0-.2.1-.2.2.1.5.2.7.2-.4-.4-.9-.8-1.5-1-.1 0 0-.2.1-.2.3.1.5.1.8.2-.4-.3-.9-.5-1.4-.6-.1 0-.1-.2 0-.2h.6c-.5-.3-1.1-.5-1.8-.6-.1 0-.1-.1-.1-.1s0-.1.1-.1c.3-.1.6-.1.9-.3-.6-.1-1.2-.1-1.8 0-.1 0-.2-.2-.1-.2.3-.1.6-.3 1-.4-.5 0-1 0-1.5.1-.1 0-.2-.2-.1-.2.4-.1.7-.3.9-.5-.5.1-1.1.3-1.6.4-.1 0-.2-.1-.1-.2.2-.1.5-.3.7-.4-.6.1-1.2.3-1.8.6-.1.1-.2-.1-.1-.2.3-.1.6-.3.8-.5-.6.1-1.3.3-1.9.6-.1.1-.2-.1-.1-.2.2-.1.3-.3.5-.4-.4.1-.8.3-1.1.5-.1.1-.2.1-.2.2-.1 0-.2 0-.1-.1-.3.1-.5.2-.8.2.1 0 .1.1.2.1s.1.1 0 .2c-.2.1-.4.1-.6.1.1 0 .1.1 0 .2l-.6.3c.1 0 .1 0 .1.1.3-.2.6-.3.9-.4 1.4-.4 2.9-.4 4.2.2 2 .8 3.5 2.3 4.7 4.1.4.6.8 1.2 1.1 1.9.2.3.3.6.6.8l.7.7c-.1-.3-.2-.6-.3-.8-.2-.3-.4-.6-.7-.7-.1-.1 0-.2.1-.2.3.1.6.3.8.4-.3-.6-.7-1-1.3-1.3-.2-.2-.1-.4 0-.3z" class="st3"/><path d="M186.1 236.7c-2.7 1.4-5.5 3.2-6.6 6.3-.5 1.4-.6 2.9-.1 4.3.1.4.3.8.6 1.2 0 0 .1-.1.1 0l-.3-.6c0-.1.1-.2.1-.1.1.1.2.1.2.2-.2-.3-.3-.6-.5-.8 0-.1 0-.1.1-.1s.2.1.3.2c-.1-.3-.2-.6-.2-.9 0-.1.1-.1.1-.1l.2.2c-.1-.3-.1-.6-.1-1 0-.1.1-.1.1-.1l.2.2v-.7c0-.1.1-.1.1-.1l.1-.1c-.3.1-.5.3-.7.5-.1.1-.2-.1-.1-.1.3-.4.7-.9 1-1.3-.2.1-.3.1-.5.2-.1 0-.2-.1-.1-.2.4-.3.8-.7 1.1-1.1l-.6.3c-.1.1-.2-.1-.1-.2s.2-.1.3-.2c.4-.2.7-.5 1-.7-.3 0-.7 0-1 .2-.1.1-.2-.1-.1-.2.5-.3 1.1-.6 1.6-.9-.2 0-.4-.1-.6-.1-.1 0-.1-.2 0-.2.5-.1 1.1-.3 1.5-.5-.3-.1-.6-.1-.9 0-.1 0-.2-.2 0-.2h.3c.5-.1 1-.2 1.5-.5h-1c-.1 0-.2-.2 0-.2.7-.1 1.4-.3 2-.6-.3-.1-.6-.1-.9 0-.1 0-.1-.2 0-.2h.4l1.2-.3c-.3-.1-.5-.2-.8-.2-.1 0-.1-.2 0-.2h.2c.5 0 1.1-.1 1.6-.3h-.7c-.1 0-.1-.2 0-.2.5-.1.9-.3 1.3-.6-.5-.3-.9-.2-1.3 0z" class="st5"/><path d="M184 237.3c.1-.3.2-.5.3-.8-.4.3-.7.6-.9 1-.1.1-.1.3-.2.4-.1.1-.2 0-.2-.1.1-.3.2-.7.4-1-.5.4-.9.9-1.2 1.6 0 .1-.2.1-.2-.1.1-.2.1-.5.2-.7-.4.4-.7 1-1 1.5 0 .1-.2.1-.2-.1 0-.3.1-.5.2-.8-.3.4-.5.9-.5 1.4 0 .1-.2.1-.2 0v-.6c-.3.6-.5 1.1-.6 1.8 0 .1-.1.1-.1.1s-.1 0-.1-.1l-.3-.9c-.1.6-.1 1.2.1 1.8 0 .1-.1.2-.2.1-.1-.3-.3-.6-.4-.9 0 .5 0 1 .1 1.4 0 .1-.2.2-.2.1-.1-.4-.3-.7-.5-.9.2.5.3 1.1.5 1.6 0 .1-.1.2-.2.1-.1-.2-.3-.5-.4-.7.1.6.3 1.2.6 1.8.1.1-.1.2-.2.1-.2-.3-.3-.6-.6-.8.1.6.4 1.2.7 1.8.1.1-.1.2-.2.1-.1-.2-.3-.3-.4-.5.2.4.4.7.6 1.1.1.1.1.2.2.2 0 .1 0 .2-.1.2.1.3.2.5.3.8 0-.1 0-.1.1-.2 0-.1.1-.1.2 0 .1.2.1.4.2.6 0-.1.1-.1.2 0l.3.6c0-.1 0-.1.1-.1-.2-.3-.3-.6-.4-.9-.5-1.4-.5-2.9 0-4.3.7-2 2.2-3.6 4-4.8.6-.4 1.2-.8 1.8-1.1.3-.2.6-.3.8-.6.2-.3.4-.4.6-.7-.3.1-.5.2-.8.4-.3.2-.5.4-.7.8-.1.1-.2 0-.2-.1.1-.3.3-.6.4-.9-.6.3-1 .8-1.3 1.3-.3.2-.4.1-.4 0z" class="st3"/><path d="M191.6 240.3c-3-.4-6.3-.3-8.9 1.6-1.2.9-2.1 2.1-2.5 3.5-.1.4-.2.9-.2 1.3h.1c0-.2 0-.5.1-.7 0-.1.1-.1.2 0 0 .1.1.2.1.3v-1c0-.1.1-.1.1 0 .1.1.1.2.2.3l.3-.9c0-.1.1-.1.2 0 0 .1.1.2.1.3.1-.3.3-.6.4-.9 0-.1.1-.1.1 0v.3l.3-.6c0-.1.1-.1.1 0l.1-.1h-.9c-.1 0-.1-.2 0-.2.5-.2 1-.4 1.5-.5-.2 0-.3-.1-.5-.1-.1 0-.1-.2 0-.2.5 0 1-.1 1.6-.3-.2-.1-.5-.1-.7-.1-.1 0-.1-.2 0-.2h1.7c-.3-.2-.6-.3-.9-.4-.1 0-.1-.2 0-.2.6.1 1.2.1 1.8.2-.2-.1-.3-.3-.5-.5-.1-.1 0-.2.1-.2.5.2 1 .4 1.6.4-.2-.2-.5-.4-.7-.5-.1-.1 0-.2.1-.2s.2.1.3.1c.5.2 1 .4 1.5.4-.3-.2-.5-.4-.8-.6-.1-.1 0-.2.1-.2.6.3 1.3.5 2 .6-.2-.2-.5-.4-.7-.5-.1-.1 0-.2.1-.2s.2.1.3.2c.4.1.8.3 1.1.4l-.6-.6c-.1-.1 0-.2.1-.1.1 0 .1.1.2.1.4.3 1 .5 1.5.6-.2-.1-.4-.3-.6-.4-.1-.1 0-.2.1-.2.5.2.9.3 1.4.2-.2.1-.6-.1-1-.2z" class="st3"/><path d="M189.5 239.6c.2-.2.5-.3.7-.5-.5 0-.9.1-1.3.4-.1.1-.2.2-.4.2-.1.1-.2-.1-.1-.2.3-.2.6-.4.8-.6-.7.1-1.3.3-1.8.7-.1.1-.2-.1-.1-.2.2-.2.4-.3.6-.5-.6.1-1.1.4-1.6.7-.1.1-.2-.1-.1-.2l.6-.6c-.5.2-.9.5-1.2.9-.1.1-.2 0-.2-.1.1-.2.2-.3.3-.5-.5.3-1 .7-1.4 1.2 0 .1-.1 0-.1 0v-.1c.1-.3.2-.6.2-.9-.4.4-.8 1-1 1.6 0 .1-.2.1-.2 0 .1-.3.1-.7.2-1-.3.4-.5.8-.7 1.3 0 .1-.3.1-.2 0 .1-.4.1-.7.1-1.1-.2.5-.3 1.1-.5 1.6 0 .1-.2.1-.2 0v-.8c-.3.6-.4 1.2-.4 1.8 0 .1-.2.1-.2 0v-1c-.2.6-.4 1.2-.5 1.9 0 .1-.2.1-.2 0 0-.2 0-.4-.1-.6-.1.4-.1.8-.1 1.2v.3c0 .1-.1.1-.2.1 0 .3-.1.6-.2.8.1 0 .1-.1.2-.1s.1 0 .1.1c-.1.2-.1.4-.2.6.1 0 .1 0 .1.1 0 .2-.1.4-.1.7 0-.1.1-.1.1 0 0-.3.1-.7.2-1 .4-1.4 1.2-2.6 2.4-3.5 1.7-1.3 3.8-1.8 6-1.8.7 0 1.5 0 2.2.1h1c.3-.1.6-.1.9-.2-.3-.1-.6-.1-.9-.2-.4 0-.7.1-1 .2-.1.1-.2-.1-.1-.2.3-.2.5-.3.8-.5-.6-.1-1.3.1-1.8.4-.4-.2-.5-.4-.4-.5z" class="st6"/><path d="M168.3 237.2c.5.2.9.2 1.4.1.1 0 .2.2 0 .2s-.5.1-.7.2c.5 0 1.1 0 1.6-.2.1 0 .1-.1.2-.1.1-.1.2.1.1.2-.3.1-.5.3-.7.5.4 0 .8-.1 1.2-.1.1 0 .2-.1.4-.1.1 0 .2.2 0 .2l-.9.3c.7.1 1.4.1 2.1 0 .1 0 .2.2 0 .2-.3.1-.7.2-1 .3.5.1 1.1.1 1.6 0 .1 0 .2-.1.3-.1.1 0 .2.2 0 .2-.3.1-.6.2-.8.3.5.1 1.1.1 1.6 0 .1 0 .2.1.1.2l-.6.3 1.8.3c.1 0 .1.2 0 .2-.4-.1-.7 0-1 .1.4.2.8.3 1.2.4.1 0 .2 0 .4.1.1 0 .1.2-.1.2s-.5-.1-.7-.1c.5.3.9.5 1.4.7.1 0 .1.2 0 .2h-.5c.5.3.9.6 1.4.9.1.1 0 .2-.1.2l-.9-.3.1.1h.1c.1.2.1.4.2.7 0-.1.1-.2.1-.3 0-.1.1 0 .1 0 .1.3.2.6.2 1 0-.1.1-.2.1-.2 0-.1.1 0 .2 0 .1.3.1.6.1.9.1-.1.2-.2.3-.2.1-.1.2 0 .1.1-.1.3-.1.6-.2 1 .1-.1.1-.2.2-.2.1-.1.2 0 .2.1 0 .2 0 .5-.1.7h.1c.1-.4.2-.9.2-1.3 0-1.5-.6-3-1.5-4.1-2-2.6-5.2-3.5-8.3-3.9-.2-.1-.6-.1-1 .1z" class="st5"/><path d="M171.6 237c-.4-.5-1-.8-1.7-.9.2.2.4.5.7.7.1.1-.1.2-.1.1-.3-.2-.6-.4-.9-.5-.3 0-.6-.1-.9-.1.3.2.5.3.8.4.3.2.6.2.9.3.7.1 1.4.3 2.1.5 2.1.6 4 1.7 5.4 3.4.9 1.2 1.4 2.6 1.4 4.1 0 .3 0 .7-.1 1 .1 0 .1 0 .1.1 0-.2.1-.4.1-.7 0-.1.1-.1.1-.1v-.6c0-.1.1-.1.1-.1 0 .1.1.1.1.2-.1-.3-.1-.6 0-.9-.1 0-.2 0-.2-.1s0-.2.1-.3c.1-.4.2-.8.2-1.2-.1.2-.2.4-.2.6 0 .1-.2.1-.2 0 .1-.7.1-1.3.1-2l-.3.9c0 .1-.2.1-.2 0 .1-.6.2-1.3.1-1.9-.1.3-.1.6-.2.8 0 .1-.2.1-.2 0 0-.6-.1-1.1-.1-1.7-.2.3-.2.7-.2 1.1 0 .1-.2.1-.2 0 0-.5-.1-1-.3-1.4 0 .3-.1.7-.1 1 0 .1-.2.1-.2 0 0-.6-.2-1.2-.5-1.8-.1.3-.1.7 0 1v.1h-.1c-.3-.6-.6-1.1-1.1-1.5.1.2.1.4.2.6 0 .1-.1.2-.2.1-.3-.5-.6-.9-1-1.2.1.2.3.5.4.7.1.1-.1.2-.2.1-.4-.5-.9-.9-1.4-1.2.1.2.3.4.4.6.1.1-.1.2-.2.1-.4-.5-1-.9-1.6-1.1.2.3.5.5.7.8.1.1-.1.2-.1.1l-.3-.3c-.3-.3-.7-.5-1.2-.7.2.2.4.4.6.7-.2.2-.3.3-.4.2z" class="st6"/><path d="M165.1 241.7c.5 0 1-.1 1.4-.4.1-.1.2.1.1.2-.2.1-.4.2-.6.4.5-.1 1-.4 1.5-.7l.2-.2c.1-.1.2 0 .1.1-.2.2-.4.4-.5.7.4-.2.7-.3 1.1-.5.1-.1.2-.1.3-.2.1-.1.2.1.1.2-.3.2-.5.4-.7.6.7-.2 1.4-.4 2-.7.1-.1.2.1.1.2-.3.2-.6.4-.8.6.5-.1 1-.3 1.5-.5.1-.1.2-.1.3-.2.1-.1.2.1.1.2-.3.2-.5.4-.7.6.5-.1 1.1-.3 1.5-.6.1-.1.2.1.1.2-.1.2-.3.3-.4.5l1.8-.3c.1 0 .2.2.1.2-.3.1-.6.2-.9.5.4 0 .9 0 1.3-.1.1 0 .2 0 .4-.1.1 0 .1.2 0 .2-.2 0-.5.1-.7.2.5.1 1.1.2 1.6.2.1 0 .2.2 0 .2-.2.1-.3.1-.5.1.5.1 1.1.3 1.6.4.1 0 .1.2 0 .2h-.9c.1 0 .1 0 .2.1 0-.1.1-.1.2 0 .1.2.3.4.4.6v-.3c0-.1.1-.1.1 0 .2.3.4.5.5.8v-.3c0-.1.1-.1.2 0 .2.3.3.5.4.8 0-.1.1-.2.2-.3 0-.1.1 0 .2 0 0 .3.1.7.1 1 0-.1 0-.2.1-.3 0-.1.1-.1.2 0 .1.2.1.5.2.7 0-.1.1-.1.1 0 0-.4-.2-.9-.3-1.3-.5-1.4-1.5-2.6-2.8-3.4-2.8-1.7-6.1-1.5-9.1-.9-.7.1-1 .3-1.4.6z" class="st5"/><path d="M168.2 240.4c-.6-.3-1.2-.4-1.9-.3.3.1.6.3.9.4.1.1 0 .2-.1.2-.3-.1-.7-.2-1-.2-.3.1-.6.1-.9.2.3 0 .6.1.9.1.3.1.6 0 1 0 .7-.1 1.4-.2 2.2-.2 2.2-.1 4.4.2 6.2 1.3 1.3.8 2.2 2 2.7 3.4.1.3.2.6.3 1h.1c0-.2-.1-.4-.1-.7 0-.1.1-.1.1-.1l-.3-.6c0-.1.1-.1.1-.1.1 0 .1.1.2.1-.2-.2-.3-.5-.3-.8 0 .1-.2 0-.2-.1v-.3c0-.4-.1-.8-.2-1.2v.6c0 .1-.2.2-.2 0-.1-.7-.3-1.3-.6-1.9 0 .3 0 .7.1 1 0 .1-.2.2-.2 0-.1-.6-.3-1.2-.6-1.8 0 .3.1.6.1.8 0 .1-.2.1-.2 0-.2-.5-.4-1-.7-1.6-.1.4 0 .7.1 1.1.1.1-.2.2-.2.1-.2-.5-.5-.9-.8-1.2.1.3.2.7.3 1 0 .1-.2.2-.2.1-.2-.6-.6-1.1-1.1-1.5l.3.9v.1s-.1.1-.1 0c-.5-.4-1-.8-1.6-1.1.1.2.2.3.3.5.1.1-.1.2-.2.1-.4-.4-.8-.6-1.3-.8.2.2.4.4.6.5.1.1 0 .2-.1.2-.5-.3-1.1-.5-1.7-.6.2.1.4.3.6.4.1.1 0 .2-.1.2-.6-.4-1.2-.5-1.9-.5.3.2.6.4.9.5.1.1 0 .2-.1.2-.1-.1-.3-.1-.4-.2-.4-.2-.9-.3-1.3-.2.3.1.5.3.8.4 0 .5-.1.7-.2.6z" class="st3"/><path d="M165.3 247.6c.5-.2.9-.4 1.2-.8.1-.1.2 0 .2.1-.2.2-.3.4-.4.6.4-.3.9-.7 1.1-1.1 0-.1.1-.1.1-.2.1-.1.2 0 .2.1-.1.3-.2.5-.3.8.3-.3.6-.6.9-.8.1-.1.1-.2.2-.3.1-.1.2 0 .2.1-.2.2-.4.5-.5.8.6-.4 1.1-.8 1.6-1.3.1-.1.2 0 .2.1-.2.3-.4.5-.5.8.5-.3.9-.6 1.2-1 .1-.1.1-.2.2-.2.1-.1.2 0 .2.1-.2.2-.3.5-.5.8.5-.3.9-.6 1.3-1 .1-.1.2 0 .2.1l-.3.6c.5-.3 1.1-.6 1.6-.9.1-.1.2.1.1.2-.3.2-.5.4-.7.7.4-.1.8-.3 1.2-.5.1-.1.2-.1.3-.2.1-.1.2.1.1.2-.2.1-.4.2-.6.4l1.5-.3c.1 0 .2.1.1.2s-.3.2-.4.3c.5 0 1.1-.1 1.6-.1.1 0 .2.2 0 .2-.3.1-.6.2-.8.3h.2c0-.1.1-.1.1-.1.2.1.4.3.5.4 0-.1-.1-.2-.1-.3 0-.1.1-.1.1-.1.3.2.5.4.7.6v-.3c0-.1.1-.1.1-.1.2.2.5.4.6.7v-.3c0-.1.1-.1.2 0 .1.3.3.6.4.9v-.3c0-.1.1-.1.2-.1.2.2.3.4.4.6 0-.1.1-.1.1-.1-.2-.4-.4-.8-.7-1.1-.9-1.2-2.3-1.9-3.7-2.3-3.1-.7-6.2.6-8.8 2.1-.3.3-.6.6-.8 1z" class="st6"/><path d="M167.8 245.4c-.6-.1-1.3 0-1.8.3.3 0 .6.1.9.1.1 0 .1.2 0 .2-.4 0-.7 0-1 .2-.3.2-.5.3-.7.5.3-.1.6-.1.9-.2.3-.1.6-.2.9-.4.6-.4 1.3-.6 2-.9 2-.8 4.1-1.2 6.2-.7 1.4.4 2.7 1.1 3.6 2.3.2.3.4.5.6.8 0-.1.1-.1.1 0l-.3-.6c0-.1 0-.1.1-.1-.2-.1-.3-.3-.4-.5 0-.1 0-.1.1-.1h.2c-.2-.2-.4-.4-.5-.7 0 .1-.1.1-.2 0 0-.1-.1-.2-.1-.3-.2-.4-.4-.7-.6-1.1.1.2.1.4.2.6 0 .1-.1.2-.2.1-.3-.6-.7-1.1-1.2-1.6.1.3.2.6.4.9.1.1-.1.2-.2.1-.3-.6-.7-1.1-1.1-1.5.1.2.2.5.4.7.1.1-.1.2-.2.1-.4-.4-.7-.8-1.1-1.3.1.4.2.7.5 1 .1.1-.1.2-.2.1-.3-.4-.7-.7-1.1-.9l.6.9c.1.1-.1.2-.2.1-.4-.5-.9-.8-1.5-1 .2.3.4.5.6.8v.1c0 .1-.1.1-.1.1-.6-.3-1.2-.4-1.8-.5.2.1.3.2.5.3.1.1 0 .2-.1.2-.5-.2-1-.3-1.5-.3.3.1.5.2.8.3.1 0 .1.2-.1.2-.6-.1-1.2-.1-1.8 0 .2.1.5.1.7.2.1 0 .1.2-.1.2-.7-.1-1.3-.1-2 .1.3.1.7.1 1 .2.1 0 .1.2 0 .2s-.3 0-.4-.1c-.4 0-.9 0-1.3.2.3.1.6.1.8.2-.1.3-.2.5-.3.5z" class="st5"/><path d="M165.9 252.4c.4-.3.7-.7.9-1.1.1-.1.2-.1.2.1-.1.2-.2.4-.2.7.3-.4.6-.9.7-1.4v-.2c0-.1.2-.1.2 0 0 .3-.1.6 0 .9.2-.4.4-.7.6-1.1 0-.1.1-.2.1-.3.1-.1.2-.1.2.1-.1.3-.2.6-.2.9.4-.5.8-1.1 1.1-1.8.1-.1.2-.1.2.1-.1.3-.2.6-.2 1 .3-.4.6-.8.8-1.3 0-.1.1-.2.1-.3.1-.1.2-.1.2.1-.1.3-.2.6-.2.9.3-.4.6-.9.9-1.4 0-.1.2-.1.2 0v.7c.4-.4.8-.9 1.2-1.3.1-.1.2 0 .2.1-.2.3-.4.6-.4.9.3-.2.7-.5 1-.8l.3-.3c.1-.1.2.1.1.2-.2.2-.3.4-.4.5.5-.2.9-.5 1.3-.8.1-.1.2 0 .2.1-.1.1-.2.3-.3.4.5-.2 1-.4 1.5-.7.1 0 .2.1.1.2-.3.2-.5.4-.7.6h.2c0-.1 0-.1.1-.1.2.1.4.1.6.2-.1-.1-.1-.2-.2-.2 0-.1 0-.1.1-.1.3.1.6.2.9.4 0-.1-.1-.2-.1-.2 0-.1 0-.1.1-.1.3.1.6.2.8.4 0-.1-.1-.2-.1-.3 0-.1.1-.1.1-.1l.7.7c0-.1-.1-.2-.1-.3 0-.1.1-.2.1-.1.2.1.4.3.5.4 0-.1 0-.1.1-.1-.3-.3-.7-.6-1-.8-1.2-.8-2.8-1.1-4.2-.9-3.2.3-5.6 2.5-7.6 4.9-.4-.2-.6.2-.7.6z" class="st6"/><path d="M167.5 249.6c-.6.1-1.2.4-1.6.9.3-.1.6-.1.9-.2.1 0 .2.2 0 .2-.3.1-.7.3-.9.5-.2.2-.4.5-.5.7.3-.2.5-.3.8-.5.3-.2.5-.4.7-.6.5-.5 1-1 1.6-1.5 1.6-1.4 3.5-2.5 5.6-2.7 1.5-.1 2.9.2 4.1 1 .3.2.5.4.8.6 0-.1.1-.1.1-.1-.2-.1-.3-.3-.5-.4-.1 0 0-.1 0-.2-.2-.1-.4-.2-.5-.3-.1 0 0-.1 0-.2h.2c-.3-.1-.5-.2-.7-.4 0 .1-.1.1-.2.1l-.2-.2c-.3-.3-.6-.6-.9-.8.1.2.2.3.4.5.1.1 0 .2-.1.2-.5-.4-1-.8-1.6-1.1.2.3.4.5.6.7.1.1-.1.2-.1.2-.5-.4-1-.8-1.5-1l.6.6c.1.1 0 .2-.1.2-.5-.3-1-.5-1.5-.8.2.3.4.6.8.7.1.1 0 .2-.1.2-.4-.2-.9-.4-1.4-.5.3.2.5.4.8.6.1.1 0 .3-.1.2-.5-.3-1.1-.5-1.8-.5.2.2.5.4.8.5l.1.1c0 .1 0 .1-.1.1-.6-.1-1.2 0-1.9.1.2.1.4.1.6.2.1 0 .1.2 0 .2-.5 0-1 0-1.5.2h.8c.1 0 .1.2 0 .2-.6.1-1.2.3-1.7.6h.7c.1 0 .1.2 0 .2-.7.1-1.3.3-1.8.7.3 0 .7-.1 1-.1.1 0 .2.2 0 .2-.1 0-.3 0-.4.1-.4.1-.8.3-1.2.6.3 0 .6-.1.8-.1.2-.1.3 0 .1.1z" class="st3"/><path d="M172.8 239.1c.3.2.6.4 1 .4.1 0 .1.2 0 .2h-.5c.4.2.8.3 1.2.3h.2c.1 0 .1.1 0 .1-.2 0-.4.1-.6.1.3.1.6.1.9.2h.3c.1 0 .1.2 0 .2h-.7c.5.2 1 .4 1.5.5.1 0 .1.2 0 .2h-.8c.3.2.7.3 1.1.4h.2c.1 0 .1.2 0 .2h-.7c.4.2.8.3 1.2.4.1 0 .1.1 0 .2-.2 0-.3.1-.5.1.4.2.8.5 1.2.7.1 0 0 .2-.1.1-.2-.1-.5-.2-.7-.2.2.2.5.4.8.6.1 0 .2.1.2.1.1.1 0 .2-.1.1-.2-.1-.3-.2-.5-.2.3.3.5.6.9.8.1.1 0 .2-.1.1-.1 0-.2-.1-.4-.2.3.3.5.7.8 1 .1.1 0 .2-.1.1-.2-.2-.4-.3-.5-.4 0 0 0 .1.1.1 0 0 .1 0 .1.1v.5c0-.1.1-.1.1-.2 0 0 .1 0 .1.1 0 .2 0 .5-.1.7 0 0 .1-.1.2-.1 0 0 .1 0 .1.1 0 .2-.1.5-.2.7.1 0 .2-.1.2-.1.1 0 .1 0 .1.1-.1.2-.3.4-.4.6.1 0 .1-.1.2-.1s.1 0 .1.1c0 .2-.1.3-.2.5h.1c.2-.3.3-.6.4-.9.4-1.1.3-2.2-.1-3.3-.8-2.3-2.9-3.7-5-4.8-.4-.2-.7-.3-1-.2z" class="st6"/><path d="M175.2 239.7c-.2-.4-.5-.8-1-1l.3.6c0 .1-.1.1-.1.1-.1-.2-.3-.4-.5-.6l-.6-.3.5.5c.2.2.4.3.6.4.5.2.9.6 1.4.9 1.3.9 2.5 2.1 3 3.7.4 1.1.4 2.2 0 3.2-.1.2-.2.5-.3.7 0 0 .1 0 .1.1.1-.2.2-.3.2-.5 0 0 .1-.1.1 0 0-.2.1-.3.1-.5 0-.1.1-.1.1 0 0 0 0 .1.1.1 0-.2.1-.4.2-.6-.1 0-.1-.1-.1-.1 0-.1.1-.1.1-.2.2-.3.3-.5.4-.8-.1.1-.2.2-.3.4-.1.1-.2 0-.1-.1.2-.4.4-.9.5-1.4-.2.2-.3.4-.4.6 0 .1-.2 0-.1-.1.2-.4.4-.9.5-1.3-.1.2-.2.4-.3.5-.1.1-.2 0-.1-.1l.3-1.2c-.2.2-.3.4-.4.7 0 .1-.2 0-.2-.1.1-.4.1-.7.1-1.1-.1.2-.2.5-.3.7 0 .1-.2 0-.2-.1.1-.5.1-.9.1-1.4-.1.2-.2.5-.2.7 0 0 0 .1-.1.1h-.1c-.1-.5-.2-.9-.4-1.3v.4c0 .1-.1.1-.2 0-.1-.4-.2-.8-.4-1.1 0 .2.1.4.1.6 0 .1-.1.1-.2 0-.2-.4-.4-.8-.7-1.2.1.2.1.4.2.5 0 .1-.1.1-.2 0-.2-.5-.5-.9-.9-1.2.1.2.2.5.3.7 0 .1-.1.2-.1.1s-.1-.2-.1-.3c-.2-.3-.4-.6-.7-.8.1.2.2.4.2.6 0 .6-.2.6-.2.5z" class="st3"/><path d="M1359.7 260.7s69.3-60.6 71.3-88.9l7.3 13.4 31.3-41.5 11.2 9.3 38.8-57.1 33.4 56.4 10-9.3 107.2 114.5-310.5 3.2z" class="st12"/><path d="M1519.8 96.5l-19.8 58.6h8.3l-22.2 44.7 39.3-37.6 9.8 8.5 17.9-18.4zm43.3 46.5l-4.2 58.6s-17.6 6.8-19.5 26.9l-33 30.7 166.6 1.7L1563.1 143z" class="st13"/><path d="M224.4 258.5s-.5 8.6-13.9 8.6c0 0-3.7-.9-3.7 4.5-.1 5.4 0 16 0 16s-1.1 10.8-14.5 10.9c-13.4.2-20.9-1.1-27.7 0-4.3.7-4.7 1.6-4.8 16.2-.1 14.5-1.9 16.4-15.1 16.4s1.7-38.2 1.7-38.2l33.7-12.6 24-18.2 20.3-3.6z" class="st58"/><path d="M221.4 258.5s-.1 6.6-9.5 6.8c-9.4.2-11.5-2.6-10.9 21 0 0 1.1 9-11.2 9h-27.1s-9.1-1.5-9.1 11.7v15.1s.6 8.8-12.6 9h-28.7s-10.4 2.3-10.2-8.7 0-64 0-64h119.3z" class="st26"/><path d="M189.6 322.1v8.5h31.5s7.8 1 8.3-16.8c0 0-.9-12.5 9.1-12.5h57.6l155.8.3s7.8.5 7.8 18c0 0-.9 10.8 14.9 11.1 15.8.3 17.2 2.4 17.8 18.1s16.5 12.4 22.3 12.4c5.8 0 73.8.3 73.8.3h54.4v-8.7l-2-94.3-390.5 20.1-27.5 24.6-3.5 16.6-29.8 2.3z" class="st58"/><path d="M239.1 258.5V274s.9 6.3-7.8 6.3-12.8 0-12.8 7.1V305s.6 5.4-5.9 5.5c-6.5.2-13.6.4-18.1 0-2-.2-4.9-.8-5 7.7v3.9H222s7.6-2.9 7.6-10.6c0-7.8 1.5-18.8 9.5-18.7 8.1.1 211.6.2 211.6.2s8.8 1.3 8.8 16.2c-.1 14.8 8 12.9 15.5 13 7.5.1 16.4-.5 17.2 14.3.8 14.8 3.4 16.3 11.3 16.4 7.9.1 139.1 0 139.1 0l-2-94.3H239.1z" class="st26"/><path d="M1336.8 322.1l-2 6.4-283.2 2.2s-7.8 1-8.3-16.8c0 0 .9-12.5-9.1-12.5h-57.6l-155.8.3s-7.8.5-7.8 18c0 0 .9 10.8-14.9 11.1-15.8.3-17.2 2.4-17.8 18.1s-16.5 12.4-22.2 12.4-73.8.3-73.8.3h-54.4v-8.7l2-94.3 390.5 20.1 27.5 24.6 3.5 16.6 283.4 2.2z" class="st57"/><path d="M1482.5 258.5l-145.7 63.6h-286.1s-7.6-2.9-7.6-10.6c0-7.8-1.5-18.8-9.5-18.7-8.1.1-211.6.2-211.6.2s-8.8 1.3-8.8 16.2c.1 14.8-8 12.9-15.5 13-7.5.1-16.4-.5-17.2 14.3-.8 14.8-3.4 16.3-11.3 16.4-7.9.1-139.1 0-139.1 0l-2.3-94.3h854.7z" class="st59"/><path d="M1332.1 317.7v16.7s-6 20.7 30.7 20.3c36.7-.3 110 0 110 0l50-1.9s13.3 3.2 13-16.6 0-21.2 0-21.2 2-12-19.3-12h-32.3s-11.4 1.9-11.5-8.1c-.2-10 6.6-10.8 6.6-10.8s194.1 3.8 210.8-1.1c4.6-1.4 8.2-5.3 7.8-17.5-.3-12.2 0-6 0-6l-226.2-1-139.6 59.2z" class="st59"/><path d="M109.7 256v3.7s31 5 43.7-.3l.8-3.4h-44.5z" class="st14"/><ellipse cx="132" cy="256" class="st15" rx="22.3" ry="3.4"/><path d="M115 176.7V256h34v-79.3l-9.4-5.5h-16.2z" class="st14"/><path d="M116.8 181.2v2l6.9-4.7v-2zm0 5.4v2l6.9-4.7V182zm8.5-5.4h13v2h-13zm0-5.3h13v2h-13zm21.8 5.3v2l-6.8-4.7v-2zm0 5.4v2l-6.8-4.7V182zm-30.3 5.3v1.9l6.9-4.6v-2zm0 5.4v2l6.9-4.7v-1.9zm8.5-5.5h13v2h-13zm0-5.2h13v2h-13zm21.8 5.3v1.9l-6.8-4.6v-2zm0 5.4v2l-6.8-4.7v-1.9zm-30.3 5.4v2l6.9-4.7v-1.9zm0 5.5v2l6.9-4.7v-2zm8.5-5.5h13v2h-13zm0-5.2h13v2h-13zm21.8 5.2v2l-6.8-4.7v-1.9zm0 5.5v2l-6.8-4.7v-2zm-30.3 5.3v2l6.9-4.7v-1.9zm0 5.5v1.9l6.9-4.6v-2zm8.5-5.5h13v2h-13zm0-5.3h13v2h-13zm21.8 5.3v2l-6.8-4.7v-1.9zm0 5.5v1.9l-6.8-4.6v-2zm-30.3 5.6v1.9l6.9-4.6v-2zm0 5.4v2l6.9-4.7v-1.9zm8.5-5.5h13v2h-13zm0-5.2h13v2h-13zm21.8 5.3v1.9l-6.8-4.6v-2zm0 5.4v2l-6.8-4.7v-1.9zm-30.3 5.1v2l6.9-4.7v-2zm0 5.4v2l6.9-4.7v-1.9zm8.5-5.4h13v2h-13zm0-5.3h13v2h-13zm21.8 5.3v2l-6.8-4.7v-2zm0 5.4v2l-6.8-4.7v-1.9zm-30.3 5.4v2l6.9-4.7v-1.9zm0 5.5v1.9l6.9-4.6v-2zm8.5-5.5h13v2h-13zm0-5.2h13v2h-13zm21.8 5.2v2l-6.8-4.7v-1.9zm0 5.5v1.9l-6.8-4.6v-2z" class="st15"/><g id="wau_1_"><path d="M1593.7 63.1l6.3-4.4-9.2-6.4z" class="st16"/><path d="M1616.9 88.3l-5-7.3s14-12.3 16-27.5c0 0-16.8-4.6-29.3 4.2l-2.6 1.8-2.6 1.9c-12.6 8.8-14 26.1-14 26.1 15 3.3 31.3-5.6 31.3-5.6l4.9 7.1c-19.5 9.5-33.8 2.1-33.8 2.1 14.4 15 38 2.6 38 2.6s19.7-17.9 10.5-36.6c0-.1 2.1 16.1-13.4 31.2z" class="st17"/><path d="M1579.5 87.8l9.3 17.8 1.6-1.1z" class="st16"/><path d="M1583.5 93.5l5.9 9.3 1.1-.3z" class="st17"/><path d="M1628.1 53.8l13.6 14.8-1.6 1.1z" class="st16"/><path d="M1632.2 59.4l6.6 8.8-.7 1z" class="st17"/><path d="M1581.8 91s19.9 5.8 33-3.3 15.6-30.7 15.6-30.7 11.6 21.2-10.5 36.6-38.1-2.6-38.1-2.6z" class="st18"/><path d="M1596 63.3l11.8 16.9s-4.7 3-10.7 4.5c-5.7 1.4-12.3 1.6-14.8.7 0-.1 2.4-17.1 13.7-22.1zm3.4-2.4l11.8 16.9s4.5-3.4 7.9-8.5c3.2-4.9 5.7-11 5.7-13.7 0-.1-16.8-3.6-25.4 5.3z" class="st19"/></g><path d="M748.4 182.7h29.5v75.8h-29.5z" class="st20"/><path d="M748.4 189.8h29.5v1.6h-29.5zm0 4.7h29.5v1.6h-29.5zm0 4.8h29.5v1.6h-29.5zm0 4.7h29.5v1.6h-29.5zm0 4.8h29.5v1.6h-29.5zm0 4.8h29.5v1.6h-29.5zm0 4.7h29.5v1.6h-29.5zm0 4.8h29.5v1.6h-29.5zm0 4.7h29.5v1.6h-29.5zm0 4.8h29.5v1.6h-29.5zm0 4.8h29.5v1.6h-29.5zm0 4.7h29.5v1.6h-29.5zm0 4.8h29.5v1.6h-29.5zm0 4.7h29.5v1.6h-29.5z" class="st21"/><path d="M820 208.3h40.1v50.2H820z" class="st22"/><path d="M822.1 211.3h4.3v4.3h-4.3zm6.3 0h4.3v4.3h-4.3zm6.3 0h4.3v4.3h-4.3zm6.3 0h4.3v4.3H841zm6.3 0h4.3v4.3h-4.3zm6.3 0h4.3v4.3h-4.3zm-31.5 6.6h4.3v4.3h-4.3zm6.3 0h4.3v4.3h-4.3zm6.3 0h4.3v4.3h-4.3zm6.3 0h4.3v4.3H841zm6.3 0h4.3v4.3h-4.3zm6.3 0h4.3v4.3h-4.3zm-31.5 6.6h4.3v4.3h-4.3zm6.3 0h4.3v4.3h-4.3zm6.3 0h4.3v4.3h-4.3zm6.3 0h4.3v4.3H841zm6.3 0h4.3v4.3h-4.3zm6.3 0h4.3v4.3h-4.3zm-31.5 6.6h4.3v4.3h-4.3zm6.3 0h4.3v4.3h-4.3zm6.3 0h4.3v4.3h-4.3zm6.3 0h4.3v4.3H841zm6.3 0h4.3v4.3h-4.3zm6.3 0h4.3v4.3h-4.3zm-31.5 6.9h4.3v4.3h-4.3zm6.3 0h4.3v4.3h-4.3zm6.3 0h4.3v4.3h-4.3zm6.3 0h4.3v4.3H841zm6.3 0h4.3v4.3h-4.3zm6.3 0h4.3v4.3h-4.3zm-31.5 6.6h4.3v4.3h-4.3zm6.3 0h4.3v4.3h-4.3zm6.3 0h4.3v4.3h-4.3zm6.3 0h4.3v4.3H841zm6.3 0h4.3v4.3h-4.3zm6.3 0h4.3v4.3h-4.3zm-31.5 6.6h4.3v4.3h-4.3zm6.3 0h4.3v4.3h-4.3zm6.3 0h4.3v4.3h-4.3zm6.3 0h4.3v4.3H841zm6.3 0h4.3v4.3h-4.3zm6.3 0h4.3v4.3h-4.3z" class="st23"/><path d="M774.7 176.7h35.1v81.8h-35.1z" class="st24"/><path d="M777.5 179h4.3v4.3h-4.3zm6.3 0h4.3v4.3h-4.3zm6.3 0h4.3v4.3h-4.3zm6.3 0h4.3v4.3h-4.3zm6.3 0h4.3v4.3h-4.3zm-25.2 6.6h4.3v4.3h-4.3zm6.3 0h4.3v4.3h-4.3zm6.3 0h4.3v4.3h-4.3zm6.3 0h4.3v4.3h-4.3zm6.3 0h4.3v4.3h-4.3zm-25.2 6.6h4.3v4.3h-4.3zm6.3 0h4.3v4.3h-4.3zm6.3 0h4.3v4.3h-4.3zm6.3 0h4.3v4.3h-4.3zm6.3 0h4.3v4.3h-4.3zm-25.2 6.4h4.3v4.3h-4.3zm6.3 0h4.3v4.3h-4.3zm6.3 0h4.3v4.3h-4.3zm6.3 0h4.3v4.3h-4.3zm6.3 0h4.3v4.3h-4.3zm-25.2 6.7h4.3v4.3h-4.3zm6.3 0h4.3v4.3h-4.3zm6.3 0h4.3v4.3h-4.3zm6.3 0h4.3v4.3h-4.3zm6.3 0h4.3v4.3h-4.3zm-25.2 6.6h4.3v4.3h-4.3zm6.3 0h4.3v4.3h-4.3zm6.3 0h4.3v4.3h-4.3zm6.3 0h4.3v4.3h-4.3zm6.3 0h4.3v4.3h-4.3zm-25.2 6.6h4.3v4.3h-4.3zm6.3 0h4.3v4.3h-4.3zm6.3 0h4.3v4.3h-4.3zm6.3 0h4.3v4.3h-4.3zm6.3 0h4.3v4.3h-4.3zm-25.2 6.6h4.3v4.3h-4.3zm6.3 0h4.3v4.3h-4.3zm6.3 0h4.3v4.3h-4.3zm6.3 0h4.3v4.3h-4.3zm6.3 0h4.3v4.3h-4.3zm-18.9 6.7h4.3v4.3h-4.3zm6.3 0h4.3v4.3h-4.3zm6.3 0h4.3v4.3h-4.3zm6.3 0h4.3v4.3h-4.3zm-12.6 6.8h4.3v4.3h-4.3zm6.3 0h4.3v4.3h-4.3zm6.3 0h4.3v4.3h-4.3zm-6.3 6.6h4.3v4.3h-4.3zm6.3 0h4.3v4.3h-4.3zm0 6.7h4.3v4.3h-4.3z" class="st25"/><path d="M580.9 213.1s18.5-14.8 37.5-14.6 26.6-1.6 40 9c0 0 2.8 7.4 41.1 5.6 38.4-1.8 68.1 44.7 127.5 45.4l-250.9.6 4.8-46z" class="st26"/><g id="klcc_group_1_"><path d="M920.703 188.118l1.773.926-8.7 16.666-1.773-.925z" class="st27"/><path d="M930.913 204.87l-1.773.924-8.7-16.666 1.773-.926z" class="st27"/><path d="M913 183.2h16.5v5.8H913z" class="st28"/><path d="M913 184.6h16.5v2.1H913z" class="st27"/><g id="klcc_right_1_"><path d="M929.2 119.4h36.6v139.1h-36.6zm3.1-26.3H963v26.2h-30.7z" class="st28"/><path d="M935.1 69.6h26.2v23.8h-26.2z" class="st28"/><path d="M939.5 53.7h17.1v16.8h-17.1z" class="st28"/><path d="M940.7 55h2.6v2.4h-2.6zm3.8 0h2.6v2.4h-2.6zm-3.8 3h2.6v2.4h-2.6zm3.8 0h2.6v2.4h-2.6zm-3.8 2.9h2.6v2.4h-2.6zm3.8 0h2.6v2.4h-2.6zm4.4-5.9h2.6v2.4h-2.6zm3.8 0h2.6v2.4h-2.6zm-3.8 3h2.6v2.4h-2.6zm3.8 0h2.6v2.4h-2.6zm-3.8 2.9h2.6v2.4h-2.6zm3.8 0h2.6v2.4h-2.6zm-12 3h2.6v2.4h-2.6zm3.8 0h2.6v2.4h-2.6zm-3.8 3h2.6v2.4h-2.6zm3.8 0h2.6v2.4h-2.6zm4.4-3h2.6v2.4h-2.6zm3.8 0h2.6v2.4h-2.6zm-3.8 3h2.6v2.4h-2.6zm3.8 0h2.6v2.4h-2.6zm-16.2 3.8h4.2v2h-4.2zm6 0h4.2v2h-4.2zm-6 2.5h4.2v2h-4.2zm6 0h4.2v2h-4.2zm-6 2.5h4.2v2h-4.2zm6 0h4.2v2h-4.2zm7.1-5h4.2v2h-4.2zm6.1 0h4.2v2h-4.2zm-6.1 2.5h4.2v2h-4.2zm6.1 0h4.2v2h-4.2zm-6.1 2.5h4.2v2h-4.2zm6.1 0h4.2v2h-4.2zm-19.2 2.5h4.2v2h-4.2zm6 0h4.2v2h-4.2zm-6 2.5h4.2v2h-4.2zm6 0h4.2v2h-4.2zm7.1-2.5h4.2v2h-4.2zm6.1 0h4.2v2h-4.2zm-6.1 2.5h4.2v2h-4.2zm6.1 0h4.2v2h-4.2z" class="st27"/><path d="M936.5 80.7h4.2v2h-4.2zm6 0h4.2v2h-4.2zm-6 2.5h4.2v2h-4.2zm6 0h4.2v2h-4.2zm-6 2.5h4.2v2h-4.2zm6 0h4.2v2h-4.2zm7.1-5h4.2v2h-4.2zm6.1 0h4.2v2h-4.2zm-6.1 2.5h4.2v2h-4.2zm6.1 0h4.2v2h-4.2zm-6.1 2.5h4.2v2h-4.2zm6.1 0h4.2v2h-4.2zm-19.2 2.5h4.2v2h-4.2zm6 0h4.2v2h-4.2zm-6 2.5h4.2v2h-4.2zm6 0h4.2v2h-4.2zm7.1-2.5h4.2v2h-4.2zm6.1 0h4.2v2h-4.2zm-6.1 2.5h4.2v2h-4.2zm6.1 0h4.2v2h-4.2z" class="st27"/><path d="M947.2 24.2h1.5v18.4h-1.5z" class="st28"/><circle cx="948" cy="23.2" r="1.7" class="st29"/><circle cx="948" cy="35.2" r="2.7" class="st29"/><path d="M940.8 50.5H955v3.2h-14.2z" class="st27"/><path d="M943.1 47.2h9.8v3.2h-9.8z" class="st28"/><path d="M944.5 44.5h6.7v2.7h-6.7z" class="st27"/><path d="M946.2 42.5h3.4v2.1h-3.4z" class="st28"/><path d="M933.8 94.6h5v2.2h-5zm7.1 0h5v2.2h-5zm-7.1 2.7h5v2.2h-5zm7.1 0h5v2.2h-5zm-7.1 2.7h5v2.2h-5zm7.1 0h5v2.2h-5zm8.4-5.4h5v2.2h-5zm7 0h5v2.2h-5zm-7 2.7h5v2.2h-5zm7 0h5v2.2h-5zm-7 2.7h5v2.2h-5zm7 0h5v2.2h-5zm-22.5 2.8h5v2.2h-5zm7.1 0h5v2.2h-5zm-7.1 2.7h5v2.2h-5zm7.1 0h5v2.2h-5zm8.4-2.7h5v2.2h-5zm7 0h5v2.2h-5zm-7 2.7h5v2.2h-5zm7 0h5v2.2h-5z" class="st27"/><path d="M933.8 105.5h5v2.2h-5zm7.1 0h5v2.2h-5zm-7.1 2.7h5v2.2h-5zm7.1 0h5v2.2h-5zm-7.1 2.7h5v2.2h-5zm7.1 0h5v2.2h-5zm8.4-5.4h5v2.2h-5zm7 0h5v2.2h-5zm-7 2.7h5v2.2h-5zm7 0h5v2.2h-5zm-7 2.7h5v2.2h-5zm7 0h5v2.2h-5zm-22.5 2.8h5v2.2h-5zm7.1 0h5v2.2h-5zm-7.1 2.7h5v2.2h-5zm7.1 0h5v2.2h-5zm8.4-2.7h5v2.2h-5zm7 0h5v2.2h-5zm-7 2.7h5v2.2h-5zm7 0h5v2.2h-5zm-25.3 4.5h5.9v3.6H931zm8.4 0h5.9v3.6h-5.9zm-8.4 4.4h5.9v3.6H931zm8.4 0h5.9v3.6h-5.9zm-8.4 4.5h5.9v3.6H931zm8.4 0h5.9v3.6h-5.9zm10-8.9h5.9v3.6h-5.9zm8.4 0h5.9v3.6h-5.9zm-8.4 4.4h5.9v3.6h-5.9zm8.4 0h5.9v3.6h-5.9zm-8.4 4.5h5.9v3.6h-5.9zm8.4 0h5.9v3.6h-5.9zm-26.8 4.4h5.9v3.6H931zm8.4 0h5.9v3.6h-5.9zm-8.4 4.4h5.9v3.6H931zm8.4 0h5.9v3.6h-5.9zm10-4.4h5.9v3.6h-5.9zm8.4 0h5.9v3.6h-5.9zm-8.4 4.4h5.9v3.6h-5.9zm8.4 0h5.9v3.6h-5.9z" class="st27"/><path d="M931 138.6h5.9v3.6H931zm8.4 0h5.9v3.6h-5.9zM931 143h5.9v3.6H931zm8.4 0h5.9v3.6h-5.9zm-8.4 4.4h5.9v3.6H931zm8.4 0h5.9v3.6h-5.9zm10-8.8h5.9v3.6h-5.9zm8.4 0h5.9v3.6h-5.9zm-8.4 4.4h5.9v3.6h-5.9zm8.4 0h5.9v3.6h-5.9zm-8.4 4.4h5.9v3.6h-5.9zm8.4 0h5.9v3.6h-5.9zm-26.8 4.4h5.9v3.6H931zm8.4 0h5.9v3.6h-5.9zm-8.4 4.4h5.9v3.6H931zm8.4 0h5.9v3.6h-5.9zm10-4.4h5.9v3.6h-5.9zm8.4 0h5.9v3.6h-5.9zm-8.4 4.4h5.9v3.6h-5.9zm8.4 0h5.9v3.6h-5.9z" class="st27"/><path d="M931 156.2h5.9v3.6H931zm8.5 0h5.9v3.6h-5.9zm-8.5 4.4h5.9v3.6H931zm8.5 0h5.9v3.6h-5.9zM931 165h5.9v3.6H931zm8.5 0h5.9v3.6h-5.9zm10-8.8h5.9v3.6h-5.9zm8.4 0h5.9v3.6h-5.9zm-8.4 4.4h5.9v3.6h-5.9zm8.4 0h5.9v3.6h-5.9zm-8.4 4.4h5.9v3.6h-5.9zm8.4 0h5.9v3.6h-5.9zm-26.9 4.4h5.9v3.6H931zm8.5 0h5.9v3.6h-5.9zm-8.5 4.4h5.9v3.6H931zm8.5 0h5.9v3.6h-5.9zm10-4.4h5.9v3.6h-5.9zm8.4 0h5.9v3.6h-5.9zm-8.4 4.4h5.9v3.6h-5.9zm8.4 0h5.9v3.6h-5.9z" class="st27"/><path d="M931 173.8h5.9v3.6H931zm8.5 0h5.9v3.6h-5.9zm-8.5 4.4h5.9v3.6H931zm8.5 0h5.9v3.6h-5.9zm-8.5 4.4h5.9v3.6H931zm8.5 0h5.9v3.6h-5.9zm10-8.8h5.9v3.6h-5.9zm8.4 0h5.9v3.6h-5.9zm-8.4 4.4h5.9v3.6h-5.9zm8.4 0h5.9v3.6h-5.9zm-8.4 4.4h5.9v3.6h-5.9zm8.4 0h5.9v3.6h-5.9zM931 187h5.9v3.6H931zm8.5 0h5.9v3.6h-5.9zm-8.5 4.4h5.9v3.6H931zm8.5 0h5.9v3.6h-5.9zm10-4.4h5.9v3.6h-5.9zm8.4 0h5.9v3.6h-5.9zm-8.4 4.4h5.9v3.6h-5.9zm8.4 0h5.9v3.6h-5.9z" class="st27"/><path d="M931 191.4h5.9v3.6H931zm8.5 0h5.9v3.6h-5.9zm-8.5 4.4h5.9v3.6H931zm8.5 0h5.9v3.6h-5.9zm-8.5 4.4h5.9v3.6H931zm8.5 0h5.9v3.6h-5.9zm10-8.8h5.9v3.6h-5.9zm8.4 0h5.9v3.6h-5.9zm-8.4 4.4h5.9v3.6h-5.9zm8.4 0h5.9v3.6h-5.9zm-8.4 4.4h5.9v3.6h-5.9zm8.4 0h5.9v3.6h-5.9zm-26.9 4.4h5.9v3.6H931zm8.5 0h5.9v3.6h-5.9zM931 209h5.9v3.6H931zm8.5 0h5.9v3.6h-5.9zm10-4.4h5.9v3.6h-5.9zm8.4 0h5.9v3.6h-5.9zm-8.4 4.4h5.9v3.6h-5.9zm8.4 0h5.9v3.6h-5.9z" class="st27"/><path d="M931 209h5.9v3.6H931zm8.5 0h5.9v3.6h-5.9zm-8.5 4.4h5.9v3.6H931zm8.5 0h5.9v3.6h-5.9zm-8.5 4.4h5.9v3.6H931zm8.5 0h5.9v3.6h-5.9zm10-8.8h5.9v3.6h-5.9zm8.4 0h5.9v3.6h-5.9zm-8.4 4.4h5.9v3.6h-5.9zm8.4 0h5.9v3.6h-5.9zm-8.4 4.4h5.9v3.6h-5.9zm8.4 0h5.9v3.6h-5.9zm-26.9 4.5h5.9v3.6H931zm8.5 0h5.9v3.6h-5.9zm-8.5 4.4h5.9v3.6H931zm8.5 0h5.9v3.6h-5.9zm10-4.4h5.9v3.6h-5.9zm8.4 0h5.9v3.6h-5.9zm-8.4 4.4h5.9v3.6h-5.9zm8.4 0h5.9v3.6h-5.9z" class="st27"/><path d="M931 226.7h5.9v3.6H931zm8.5 0h5.9v3.6h-5.9zm-8.5 4.4h5.9v3.6H931zm8.5 0h5.9v3.6h-5.9zm-8.5 4.4h5.9v3.6H931zm8.5 0h5.9v3.6h-5.9zm10-8.8h5.9v3.6h-5.9zm8.4 0h5.9v3.6h-5.9zm-8.4 4.4h5.9v3.6h-5.9zm8.4 0h5.9v3.6h-5.9zm-8.4 4.4h5.9v3.6h-5.9zm8.4 0h5.9v3.6h-5.9zm-26.9 4.4h5.9v3.6H931zm8.5 0h5.9v3.6h-5.9zm-8.5 4.4h5.9v3.6H931zm8.5 0h5.9v3.6h-5.9zm10-4.4h5.9v3.6h-5.9zm8.4 0h5.9v3.6h-5.9zm-8.4 4.4h5.9v3.6h-5.9zm8.4 0h5.9v3.6h-5.9z" class="st27"/><path d="M931 244.3h5.9v3.6H931zm8.5 0h5.9v3.6h-5.9zm-8.5 4.4h5.9v3.6H931zm8.5 0h5.9v3.6h-5.9zm-8.5 4.4h5.9v3.6H931zm8.5 0h5.9v3.6h-5.9zm10-8.8h5.9v3.6h-5.9zm8.4 0h5.9v3.6h-5.9zm-8.4 4.4h5.9v3.6h-5.9zm8.4 0h5.9v3.6h-5.9zm-8.4 4.4h5.9v3.6h-5.9zm8.4 0h5.9v3.6h-5.9z" class="st27"/></g><g id="klcc_left_1_"><path d="M877.2 119.4h36.6v139.1h-36.6zm3.2-26.3h30.7v26.2h-30.7z" class="st28"/><path d="M883.1 69.6h26.2v23.8h-26.2z" class="st28"/><path d="M887.5 53.7h17.1v16.8h-17.1z" class="st28"/><path d="M888.8 55h2.6v2.4h-2.6zm3.7 0h2.6v2.4h-2.6zm-3.7 3h2.6v2.4h-2.6zm3.7 0h2.6v2.4h-2.6zm-3.7 2.9h2.6v2.4h-2.6zm3.7 0h2.6v2.4h-2.6zM897 55h2.6v2.4H897zm3.7 0h2.6v2.4h-2.6zm-3.7 3h2.6v2.4H897zm3.7 0h2.6v2.4h-2.6zm-3.7 2.9h2.6v2.4H897zm3.7 0h2.6v2.4h-2.6zm-11.9 3h2.6v2.4h-2.6zm3.7 0h2.6v2.4h-2.6zm-3.7 3h2.6v2.4h-2.6zm3.7 0h2.6v2.4h-2.6zm4.5-3h2.6v2.4H897zm3.7 0h2.6v2.4h-2.6zm-3.7 3h2.6v2.4H897zm3.7 0h2.6v2.4h-2.6zm-16.1 3.8h4.2v2h-4.2zm6 0h4.2v2h-4.2zm-6 2.5h4.2v2h-4.2zm6 0h4.2v2h-4.2zm-6 2.5h4.2v2h-4.2zm6 0h4.2v2h-4.2zm7.1-5h4.2v2h-4.2zm6 0h4.2v2h-4.2zm-6 2.5h4.2v2h-4.2zm6 0h4.2v2h-4.2zm-6 2.5h4.2v2h-4.2zm6 0h4.2v2h-4.2zm-19.1 2.5h4.2v2h-4.2zm6 0h4.2v2h-4.2zm-6 2.5h4.2v2h-4.2zm6 0h4.2v2h-4.2zm7.1-2.5h4.2v2h-4.2zm6 0h4.2v2h-4.2zm-6 2.5h4.2v2h-4.2zm6 0h4.2v2h-4.2z" class="st27"/><path d="M884.6 80.7h4.2v2h-4.2zm6 0h4.2v2h-4.2zm-6 2.5h4.2v2h-4.2zm6 0h4.2v2h-4.2zm-6 2.5h4.2v2h-4.2zm6 0h4.2v2h-4.2zm7.1-5h4.2v2h-4.2zm6 0h4.2v2h-4.2zm-6 2.5h4.2v2h-4.2zm6 0h4.2v2h-4.2zm-6 2.5h4.2v2h-4.2zm6 0h4.2v2h-4.2zm-19.1 2.5h4.2v2h-4.2zm6 0h4.2v2h-4.2zm-6 2.5h4.2v2h-4.2zm6 0h4.2v2h-4.2zm7.1-2.5h4.2v2h-4.2zm6 0h4.2v2h-4.2zm-6 2.5h4.2v2h-4.2zm6 0h4.2v2h-4.2z" class="st27"/><path d="M895.3 24.2h1.5v18.4h-1.5z" class="st28"/><circle cx="896" cy="23.2" r="1.7" class="st29"/><circle cx="896" cy="35.2" r="2.7" class="st29"/><path d="M888.9 50.5h14.2v3.2h-14.2z" class="st27"/><path d="M891.1 47.2h9.8v3.2h-9.8z" class="st28"/><path d="M892.6 44.5h6.7v2.7h-6.7z" class="st27"/><path d="M894.3 42.5h3.4v2.1h-3.4z" class="st28"/><path d="M881.9 94.6h5v2.2h-5zm7 0h5v2.2h-5zm-7 2.7h5v2.2h-5zm7 0h5v2.2h-5zm-7 2.7h5v2.2h-5zm7 0h5v2.2h-5zm8.4-5.4h5v2.2h-5zm7.1 0h5v2.2h-5zm-7.1 2.7h5v2.2h-5zm7.1 0h5v2.2h-5zm-7.1 2.7h5v2.2h-5zm7.1 0h5v2.2h-5zm-22.5 2.8h5v2.2h-5zm7 0h5v2.2h-5zm-7 2.7h5v2.2h-5zm7 0h5v2.2h-5zm8.4-2.7h5v2.2h-5zm7.1 0h5v2.2h-5zm-7.1 2.7h5v2.2h-5zm7.1 0h5v2.2h-5z" class="st27"/><path d="M881.9 105.5h5v2.2h-5zm7 0h5v2.2h-5zm-7 2.7h5v2.2h-5zm7 0h5v2.2h-5zm-7 2.7h5v2.2h-5zm7 0h5v2.2h-5zm8.4-5.4h5v2.2h-5zm7.1 0h5v2.2h-5zm-7.1 2.7h5v2.2h-5zm7.1 0h5v2.2h-5zm-7.1 2.7h5v2.2h-5zm7.1 0h5v2.2h-5zm-22.5 2.8h5v2.2h-5zm7 0h5v2.2h-5zm-7 2.7h5v2.2h-5zm7 0h5v2.2h-5zm8.4-2.7h5v2.2h-5zm7.1 0h5v2.2h-5zm-7.1 2.7h5v2.2h-5zm7.1 0h5v2.2h-5zm-25.4 4.5h5.9v3.6H879zm8.4 0h5.9v3.6h-5.9zm-8.4 4.4h5.9v3.6H879zm8.4 0h5.9v3.6h-5.9zm-8.4 4.5h5.9v3.6H879zm8.4 0h5.9v3.6h-5.9zm10-8.9h5.9v3.6h-5.9zm8.5 0h5.9v3.6h-5.9zm-8.5 4.4h5.9v3.6h-5.9zm8.5 0h5.9v3.6h-5.9zm-8.5 4.5h5.9v3.6h-5.9zm8.5 0h5.9v3.6h-5.9zm-26.9 4.4h5.9v3.6H879zm8.4 0h5.9v3.6h-5.9zm-8.4 4.4h5.9v3.6H879zm8.4 0h5.9v3.6h-5.9zm10-4.4h5.9v3.6h-5.9zm8.5 0h5.9v3.6h-5.9zm-8.5 4.4h5.9v3.6h-5.9zm8.5 0h5.9v3.6h-5.9z" class="st27"/><path d="M879 138.6h5.9v3.6H879zm8.4 0h5.9v3.6h-5.9zM879 143h5.9v3.6H879zm8.4 0h5.9v3.6h-5.9zm-8.4 4.4h5.9v3.6H879zm8.4 0h5.9v3.6h-5.9zm10-8.8h5.9v3.6h-5.9zm8.5 0h5.9v3.6h-5.9zm-8.5 4.4h5.9v3.6h-5.9zm8.5 0h5.9v3.6h-5.9zm-8.5 4.4h5.9v3.6h-5.9zm8.5 0h5.9v3.6h-5.9zm-26.9 4.4h5.9v3.6H879zm8.4 0h5.9v3.6h-5.9zm-8.4 4.4h5.9v3.6H879zm8.4 0h5.9v3.6h-5.9zm10-4.4h5.9v3.6h-5.9zm8.5 0h5.9v3.6h-5.9zm-8.5 4.4h5.9v3.6h-5.9zm8.5 0h5.9v3.6h-5.9z" class="st27"/><path d="M879.1 156.2h5.9v3.6h-5.9zm8.4 0h5.9v3.6h-5.9zm-8.4 4.4h5.9v3.6h-5.9zm8.4 0h5.9v3.6h-5.9zm-8.4 4.4h5.9v3.6h-5.9zm8.4 0h5.9v3.6h-5.9zm10-8.8h5.9v3.6h-5.9zm8.4 0h5.9v3.6h-5.9zm-8.4 4.4h5.9v3.6h-5.9zm8.4 0h5.9v3.6h-5.9zm-8.4 4.4h5.9v3.6h-5.9zm8.4 0h5.9v3.6h-5.9zm-26.8 4.4h5.9v3.6h-5.9zm8.4 0h5.9v3.6h-5.9zm-8.4 4.4h5.9v3.6h-5.9zm8.4 0h5.9v3.6h-5.9zm10-4.4h5.9v3.6h-5.9zm8.4 0h5.9v3.6h-5.9zm-8.4 4.4h5.9v3.6h-5.9zm8.4 0h5.9v3.6h-5.9z" class="st27"/><path d="M879.1 173.8h5.9v3.6h-5.9zm8.4 0h5.9v3.6h-5.9zm-8.4 4.4h5.9v3.6h-5.9zm8.4 0h5.9v3.6h-5.9zm-8.4 4.4h5.9v3.6h-5.9zm8.4 0h5.9v3.6h-5.9zm10-8.8h5.9v3.6h-5.9zm8.4 0h5.9v3.6h-5.9zm-8.4 4.4h5.9v3.6h-5.9zm8.4 0h5.9v3.6h-5.9zm-8.4 4.4h5.9v3.6h-5.9zm8.4 0h5.9v3.6h-5.9zm-26.8 4.4h5.9v3.6h-5.9zm8.4 0h5.9v3.6h-5.9zm-8.4 4.4h5.9v3.6h-5.9zm8.4 0h5.9v3.6h-5.9zm10-4.4h5.9v3.6h-5.9zm8.4 0h5.9v3.6h-5.9zm-8.4 4.4h5.9v3.6h-5.9zm8.4 0h5.9v3.6h-5.9z" class="st27"/><path d="M879.1 191.4h5.9v3.6h-5.9zm8.4 0h5.9v3.6h-5.9zm-8.4 4.4h5.9v3.6h-5.9zm8.4 0h5.9v3.6h-5.9zm-8.4 4.4h5.9v3.6h-5.9zm8.4 0h5.9v3.6h-5.9zm10-8.8h5.9v3.6h-5.9zm8.4 0h5.9v3.6h-5.9zm-8.4 4.4h5.9v3.6h-5.9zm8.4 0h5.9v3.6h-5.9zm-8.4 4.4h5.9v3.6h-5.9zm8.4 0h5.9v3.6h-5.9zm-26.8 4.4h5.9v3.6h-5.9zm8.4 0h5.9v3.6h-5.9zm-8.4 4.4h5.9v3.6h-5.9zm8.4 0h5.9v3.6h-5.9zm10-4.4h5.9v3.6h-5.9zm8.4 0h5.9v3.6h-5.9zm-8.4 4.4h5.9v3.6h-5.9zm8.4 0h5.9v3.6h-5.9z" class="st27"/><path d="M879.1 209h5.9v3.6h-5.9zm8.4 0h5.9v3.6h-5.9zm-8.4 4.4h5.9v3.6h-5.9zm8.4 0h5.9v3.6h-5.9zm-8.4 4.4h5.9v3.6h-5.9zm8.4 0h5.9v3.6h-5.9zm10-8.8h5.9v3.6h-5.9zm8.4 0h5.9v3.6h-5.9zm-8.4 4.4h5.9v3.6h-5.9zm8.4 0h5.9v3.6h-5.9zm-8.4 4.4h5.9v3.6h-5.9zm8.4 0h5.9v3.6h-5.9zm-26.8 4.5h5.9v3.6h-5.9zm8.4 0h5.9v3.6h-5.9zm-8.4 4.4h5.9v3.6h-5.9zm8.4 0h5.9v3.6h-5.9zm10-4.4h5.9v3.6h-5.9zm8.4 0h5.9v3.6h-5.9zm-8.4 4.4h5.9v3.6h-5.9zm8.4 0h5.9v3.6h-5.9z" class="st27"/><path d="M879.1 226.7h5.9v3.6h-5.9zm8.4 0h5.9v3.6h-5.9zm-8.4 4.4h5.9v3.6h-5.9zm8.4 0h5.9v3.6h-5.9zm-8.4 4.4h5.9v3.6h-5.9zm8.4 0h5.9v3.6h-5.9zm10-8.8h5.9v3.6h-5.9zm8.4 0h5.9v3.6h-5.9zm-8.4 4.4h5.9v3.6h-5.9zm8.4 0h5.9v3.6h-5.9zm-8.4 4.4h5.9v3.6h-5.9zm8.4 0h5.9v3.6h-5.9zm-26.8 4.4h5.9v3.6h-5.9zm8.4 0h5.9v3.6h-5.9zm-8.4 4.4h5.9v3.6h-5.9zm8.4 0h5.9v3.6h-5.9zm10-4.4h5.9v3.6h-5.9zm8.4 0h5.9v3.6h-5.9zm-8.4 4.4h5.9v3.6h-5.9zm8.4 0h5.9v3.6h-5.9z" class="st27"/><path d="M879.1 244.3h5.9v3.6h-5.9zm8.4 0h5.9v3.6h-5.9zm-8.4 4.4h5.9v3.6h-5.9zm8.4 0h5.9v3.6h-5.9zm-8.4 4.4h5.9v3.6h-5.9zm8.4 0h5.9v3.6h-5.9zm10-8.8h5.9v3.6h-5.9zm8.4 0h5.9v3.6h-5.9zm-8.4 4.4h5.9v3.6h-5.9zm8.4 0h5.9v3.6h-5.9zm-8.4 4.4h5.9v3.6h-5.9zm8.4 0h5.9v3.6h-5.9z" class="st27"/></g></g><g id="kl_tower_1_"><path d="M810.5 119.5h5.1v2.2h-5.1z" class="st30"/><path d="M799.9 96.2h26.6v2.2h-26.6z" class="st14"/><path d="M810.7 96.2l2.6-41 2.6 41z" class="st30"/><path d="M807.2 121.2h11.2l3.5 137.3h-17.6z" class="st14"/><path d="M811.6 121.2h2.5v137.3h-2.5z" class="st30"/><path d="M809.5 87h7.6v5.7h-7.6z" class="st14"/><path d="M796.7 98.2l5.9 21.1h19.8l6.9-21.1z" class="st30"/><path d="M828.4 100.8l.9-2.6h-32.6l.7 2.6zm-29.2 6.8l.7 2.3h25.6l.8-2.3zm24.8 7l.8-2.4h-24.2l.6 2.4zm-26-11.3l.6 2H827l.7-2zm3.9 13.6l.7 2.6h19.8l.9-2.6z" class="st14"/><path d="M809.5 89h7.6v2.3h-7.6z" class="st30"/></g><g id="batu_caves_grouo_1_"><path d="M460.1 249.5h190v9.7h-190z" class="st14"/><path d="M472.7 240.8h164.8v9.7H472.7z" class="st14"/><path d="M481.5 232h147.2v9.7H481.5z" class="st14"/><path d="M490.7 223.2h128.8v9.7H490.7z" class="st14"/><path d="M498.1 214.5h113.8v9.7H498.1z" class="st14"/><path d="M506 205.7h98.2v9.7H506z" class="st14"/><path d="M511 196.9h88.2v9.7H511z" class="st14"/><path d="M530.7 249.1h48.8v10.1h-48.8z" class="st31"/><path d="M529.6 249.1h50.9v6.1h-50.9z" class="st32"/><path d="M531.6 239h47v10.1h-47z" class="st31"/><path d="M530.5 239h49.1v6.1h-49.1z" class="st32"/><path d="M533.4 228.9h43.3V239h-43.3z" class="st31"/><path d="M532.4 228.9h45.2v6.1h-45.2z" class="st32"/><path d="M535.3 218.8h39.4v10.1h-39.4z" class="st31"/><path d="M534.5 218.8h41.2v6.1h-41.2z" class="st32"/><path d="M536.7 208.6h36.7v10.1h-36.7z" class="st31"/><path d="M535.9 208.6h38.3v6.1h-38.3z" class="st32"/><path d="M538.3 198.5h33.5v10.1h-33.5z" class="st31"/><path d="M537.6 198.5h34.9v6.1h-34.9z" class="st32"/><path d="M539.9 187.9h30.4v10.6h-30.4z" class="st31"/><path d="M539.2 187.9H571v6.4h-31.8z" class="st32"/><path d="M523.9 187.9h60.7l-22.4-26.6-10.7 11.3c-.4.4-1 .5-1.4.2l-8.7-5.4-17.5 20.5z" class="st31"/><path d="M553.7 178.9c-4.9 0-8.9 4-9 8.9h17.9c0-4.9-4-8.9-8.9-8.9z" class="st32"/><path d="M614.8 191.8s-14 17.5-1.2 30.2c0 0-4.7 10.6 5 25.2h7v-55.8l-10.8.4z" class="st33"/><path d="M612.3 198.6s-4.1 15.6 4.5 22.6c0 0-5.2 9 1.7 26h7v-50.5l-13.2 1.9z" class="st34"/><path d="M636.2 191.8s14 17.5 1.2 30.2c0 0 4.7 10.6-5 25.2h-7v-55.8l10.8.4z" class="st33"/><path d="M638.7 198.6s4.1 15.6-4.5 22.6c0 0 5.2 9-1.7 26h-7v-50.5l13.2 1.9z" class="st34"/><path d="M615.1 141.1c-.4-3.6-4.6-7.5-4.6-7.5s-4.2 3.8-4.6 7.5c-.2 2.1.9 4.4 4.6 5.1 3.7-.7 4.8-3 4.6-5.1z" class="st33"/><path d="M611.3 147.3h-1.5c-.3 0-.6-.3-.6-.6v-.1c0-.3.3-.6.6-.6h1.5c.3 0 .6.3.6.6v.1c0 .4-.3.6-.6.6z" class="st35"/><path d="M609.7 147.3h1.6V251h-1.6z" class="st36"/><path d="M625.4 154.3c-26.8.1-24.1 19.7-24.1 19.7l.9 76.8h3.5c1-105.3 5.8-76 5.8-76 .7 14.3 3 16.9 3 16.9l10.8-.2 10.8.2s2.3-2.6 3-16.9c0 0 4.8-29.3 5.8 76h3.5l.9-76.8c.2 0 2.9-19.6-23.9-19.7z" class="st35"/><path d="M621 153.8s-2.1 0-4.6-.9c-.1-.1-.2-.1-.4-.2-.3-.1-.7-.2-1-.2-1.5 0-2.8 1.2-2.8 2.8 0 .8.3 1.5.9 2s.1.1.2.2.2.1.3.2c1.2.7 4.2 1.9 7.8-2.6 4.5-5.8-.4-1.3-.4-1.3zm-2.9-4.4s-1 0-2.3-.5c-.1 0-.1-.1-.2-.1-.2-.1-.3-.1-.5-.1-.8 0-1.4.6-1.4 1.4 0 .4.2.8.4 1l.1.1c.1 0 .1.1.2.1.6.4 2.1.9 3.9-1.3 2.2-2.9-.2-.6-.2-.6zm12.4 4.4s2.1 0 4.6-.9c.1-.1.2-.1.4-.2.3-.1.7-.2 1-.2 1.5 0 2.8 1.2 2.8 2.8 0 .8-.3 1.5-.9 2s-.1.1-.2.2-.2.1-.3.2c-1.2.7-4.2 1.9-7.8-2.6-4.5-5.8.4-1.3.4-1.3zm2.9-4.4s1 0 2.3-.5c.1 0 .1-.1.2-.1.2-.1.3-.1.5-.1.8 0 1.4.6 1.4 1.4 0 .4-.2.8-.4 1l-.1.1c-.1 0-.1.1-.2.1-.6.4-2.1.9-3.9-1.3-2.2-2.9.2-.6.2-.6z" class="st37"/><path d="M629.4 211.2h5.3l-4.1-9.5-4.6-.3-4.5.3-4.2 9.5h5.3l-1.5 3.5h2.7l-2.1 4.7h3.1v27.9h2.4v-27.9h3.1l-2.1-4.7h2.7z" class="st38"/><path d="M625.9 135h-.3c-1.8 0-3.2-1.4-3.2-3.2v-4.3c0-1.8 1.4-3.2 3.2-3.2h.3c1.8 0 3.2 1.4 3.2 3.2v4.3c0 1.7-1.4 3.2-3.2 3.2z" class="st37"/><path d="M629.5 157.5H622c-2.8 0-5.1-2.3-5.1-5.1v-15c0-2.8 2.3-5.1 5.1-5.1h7.6c2.8 0 5.1 2.3 5.1 5.1v15c-.1 2.8-2.4 5.1-5.2 5.1z" class="st37"/><path d="M629.2 130.9h-6.7c-1.1 0-1.9-.9-1.9-1.9 0-1.1.9-1.9 1.9-1.9h6.7c1.1 0 1.9.9 1.9 1.9.1 1-.8 1.9-1.9 1.9z" class="st39"/><path d="M628.1 148.2h-4.3c-2.8 0-5.1-2.3-5.1-5.1v-.4c0-2.8 2.3-5.1 5.1-5.1h4.3c2.8 0 5.1 2.3 5.1 5.1v.4c-.1 2.8-2.4 5.1-5.1 5.1z" class="st35"/><path d="M627 158.8h-2.2c-3.4 0-6.2-2.8-6.2-6.2V146c0-3.4 2.8-6.2 6.2-6.2h2.2c3.4 0 6.2 2.8 6.2 6.2v6.6c-.1 3.4-2.8 6.2-6.2 6.2z" class="st40"/><path d="M623.3 148.2h-2.1c-.3 0-.6-.3-.6-.6s.3-.6.6-.6h2.1c.3 0 .6.3.6.6s-.3.6-.6.6zm7.3 0h-2.1c-.3 0-.6-.3-.6-.6s.3-.6.6-.6h2.1c.3 0 .6.3.6.6s-.3.6-.6.6z" class="st37"/><path d="M625.9 121.3c-6.9 3.9 0 5.3 0 5.3s6.9-1.4 0-5.3z" class="st35"/><path d="M620.6 160l5.2 7.7 4.5-7.7" class="st41"/><path d="M620.6 160l5.1 21.3 4.6-21.3" class="st41"/><circle cx="625.6" cy="181.3" r="2.4" class="st33"/><path d="M638.7 171.6c-.7-7-3.1-14.1-6-13.6s-.9 5.6-.9 5.6c8 23.3-5.6 37.4-5.6 37.4s-.1.2-.3.5h-1c-.2-.3-.3-.5-.3-.5s-13.6-14.1-5.6-37.4c0 0 2-5.1-.9-5.6s-5.3 6.6-6 13.6 1.6 27.4 9.4 32.4c.4.2.7.4 1 .6-.3.3-.6.8-.6 1.3 0 .9.7 1.7 1.5 1.8-.4.3-.7.9-.7 1.4 0 .8.5 1.5 1.3 1.8-.2.3-.3.6-.3 1 0 1 .8 1.9 1.9 1.9s1.9-.8 1.9-1.9c0-.4-.1-.7-.3-1 .7-.2 1.3-.9 1.3-1.8 0-.6-.3-1.1-.7-1.4.9-.2 1.5-.9 1.5-1.8 0-.7-.3-1.2-.9-1.6.2-.1.4-.3.7-.4 8-4.9 10.3-25.3 9.6-32.3zm-4.4 83.3h-16.7c-2.1 0-3.8-1.7-3.8-3.8 0-2.1 1.7-3.8 3.8-3.8h16.7c2.1 0 3.8 1.7 3.8 3.8 0 2.1-1.7 3.8-3.8 3.8z" class="st36"/><path d="M594.7 250.8h62v8.4h-62z" class="st33"/><path d="M518.1 187.9h71v9.7h-71z" class="st14"/></g><g id="christ_church_1_"><path d="M1203.4 200.8h78.7v57.7h-78.7z" class="st42"/><path d="M1203.6 186.6h78.7v12.2h-78.7z" class="st43"/><path d="M1201.1 198.5h83.5v3h-83.5zm.3-14.5h83.5v3h-83.5z" class="st44"/><g id="church_upper_1_"><path d="M1243.2 140c-39.2 0-33.9 44-33.9 44h67.8s5.3-44-33.9-44z" class="st43"/><path d="M1218.4 176.8h10.3v7.2h-10.3zm-5.7-5.6h15.7v-23.7c0-.1-15.7 6.7-15.7 23.7zm61 0H1258v-23.7c0-.1 15.7 6.7 15.7 23.7zm-25.7-22.7v-.3c0-2.7-2.2-4.9-4.9-4.9s-4.9 2.2-4.9 4.9v.3h-3.2v22.8h16.1v-22.8h-3.1z" class="st42"/><path d="M1248.1 153.7h-4.1v-3.3h-1.6v3.3h-4.1v1.6h4.1v8.9h1.6v-8.9h4.1z" class="st45"/><path d="M1238.4 176.8h10.3v7.2h-10.3zm19.8 0h10.3v7.2h-10.3z" class="st42"/><path d="M1208.8 176.9h68.3c-.1-1.7-.2-3.6-.4-5.6h-67.4c-.3 2-.4 4-.5 5.6z" class="st44"/><g id="bell_1_"><path d="M1243.3 124.7c.1-.3.4-.5.7-.4.2.1.4.2.4.4v.7h-1.2c.1-.3.1-.5.1-.7z" class="st35"/><path d="M1240.7 130.9s.1 0 0 0l.7-.7c.4-.5.5-1.2.5-1.8v-1.6c.2-.9 1-1.6 1.9-1.6.9 0 1.8.7 1.9 1.6v1.6c0 .7.2 1.3.5 1.8.2.3.4.5.6.7l.1.1h-6.2z" class="st36"/><path d="M1244.4 131.3c-.1.1-.3.2-.4.3h-.3c-.2 0-.3-.1-.4-.3-.1-.1-.1-.3-.1-.4h1.4c-.1.2-.1.3-.2.4z" class="st46"/></g><path d="M1230.1 135.1h26.9v2.9h-26.9z" class="st44"/><path d="M1244 117c-7.5-.1-8.7 5.8-8.7 5.8v12.3h4.5v-10.8s0-3.2 4.1-3.2 4.1 3.2 4.1 3.2v10.8h4.5v-12.3c.1 0-1.1-5.8-8.5-5.8z" class="st43"/><path d="M1239.8 115.7h8.3v2.3h-8.3z" class="st43"/><path d="M1233.3 123.3h7.1v2.9h-7.1zm13.7 0h7.1v2.9h-7.1z" class="st47"/><path d="M1243 105.5h1.9v5.3h-1.9zm-2.7 6.4h7.3v2.3h-7.3z" class="st43"/><path d="M1239.1 114.1h9.6v1.9h-9.6zm.6-3.7h8.4v1.9h-8.4z" class="st47"/><path d="M1230.1 135.1h26.9v7.7h-26.9z" class="st43"/></g><path d="M1208.6 189.3h21.1v6.8h-21.1zm25.5 0h16.9v6.8h-16.9zm22 0h21.1v6.8h-21.1zm-27.6 12.2h28.7v15.7h-28.7z" class="st42"/><path d="M1209 201.5h19.6v15.7H1209z" class="st43"/><path d="M1218.8 206.1c-3.3 0-3.5 3.6-3.5 3.6 3.4.2 3.5 2.9 3.5 2.9s.1-2.6 3.5-2.9c0 0-.2-3.6-3.5-3.6z" class="st44"/><path d="M1257.1 201.5h19.6v15.7h-19.6z" class="st43"/><path d="M1266.9 206.1c-3.3 0-3.5 3.6-3.5 3.6 3.4.2 3.5 2.9 3.5 2.9s.1-2.6 3.5-2.9c0 0-.1-3.6-3.5-3.6z" class="st44"/><path d="M1208.5 221.5h69v36.9h-69z" class="st43"/><path d="M1229.4 238.7c0-4.3-3.5-7.8-7.8-7.8s-7.8 3.5-7.8 7.8v19.8h15.6v-19.8zm21.2 0c0-4.3-3.5-7.8-7.8-7.8s-7.8 3.5-7.8 7.8v19.8h15.6v-19.8zm21.4 0c0-4.3-3.5-7.8-7.8-7.8s-7.8 3.5-7.8 7.8v19.8h15.6v-19.8zm-65.2-21.6h72.2v5.3h-72.2z" class="st44"/></g><path d="M1055.3 164.9s5.6-3.1 7.2-5h2.6s3.1 3.7 6.9 4.7l-16.7.3z" class="st48"/><path d="M1064.1 163.4c-21.3-.1-17.9 19.2-17.9 19.2h35.7c.1 0 3.5-19.3-17.8-19.2z" class="st49"/><path d="M1046.1 179.9c0 1.7.2 2.8.2 2.8h35.7s.2-1.1.2-2.8h-36.1zm16.5-20l1-15.1 1.6 15.1z" class="st48"/><circle cx="1063.9" cy="158.9" r="1.8" class="st50"/><circle cx="1063.9" cy="153.4" r="1" class="st50"/><path d="M1046.1 182.6h35.9v8.9h-35.9z" class="st50"/><path d="M1049.7 184.4l-1.9 1.8v5.4h3.8v-5.4zm7 0l-1.9 1.8v5.4h3.8v-5.4zm7.1 0l-1.9 1.8v5.4h3.8v-5.4zm7 0l-1.9 1.8v5.4h3.8v-5.4zm7.1 0l-1.9 1.8v5.4h3.8v-5.4z" class="st51"/><path d="M1042.1 191.6h44v4.8h-44z" class="st49"/><path d="M1044.3 196.4h39.5v12.8h-39.5z" class="st48"/><path d="M1055.7 196.4h16.8v12.8h-16.8z" class="st50"/><path d="M1064.1 198.2l-4 2.4v8.6h7.8v-8.6z" class="st51"/><path d="M1028.1 189.6s2.7-1.5 3.4-2.4h1.2s1.5 1.8 3.3 2.2l-7.9.2z" class="st48"/><path d="M1032.3 188.9c-10.1 0-8.5 9.1-8.5 9.1h16.9c0 .1 1.6-9.1-8.4-9.1z" class="st49"/><path d="M1023.7 196.8c0 .8.1 1.3.1 1.3h16.9s.1-.5.1-1.3h-17.1zm7.8-9.5l.5-7.2.7 7.2z" class="st48"/><circle cx="1032.1" cy="186.8" r=".8" class="st50"/><circle cx="1032.1" cy="184.2" r=".5" class="st50"/><path d="M1023.7 198.1h17v11.2h-17z" class="st50"/><path d="M1032 200.2l-1.5 1.7v7.3h3v-7.3zm5.7 0l-1.5 1.7v7.3h3v-7.3zm-11.3 0l-1.5 1.7v7.3h2.9v-7.3z" class="st51"/><path d="M1021.7 209.2h84.2v2.6h-84.2zm1.3 2.6h81.6v15.5H1023z" class="st49"/><path d="M1023 211.8h81.6v1.3H1023zm7.374 9.197l2.333-2.334 2.333 2.334-2.333 2.333zm15.583-.04l2.333-2.335 2.333 2.334-2.333 2.333zm15.326.063l2.333-2.335 2.333 2.334-2.34 2.33zm15.673-.064l2.334-2.334 2.333 2.334-2.333 2.333zm15.417.04l2.334-2.332 2.333 2.333-2.333 2.334zm-.573-31.396s2.7-1.5 3.4-2.4h1.2s1.5 1.8 3.3 2.2l-7.9.2z" class="st48"/><path d="M1096 188.9c-10.1 0-8.5 9.1-8.5 9.1h16.9c.1.1 1.7-9.1-8.4-9.1z" class="st49"/><path d="M1087.4 196.8c0 .8.1 1.3.1 1.3h16.9s.1-.5.1-1.3h-17.1zm7.9-9.5l.5-7.2.7 7.2z" class="st48"/><circle cx="1095.9" cy="186.8" r=".8" class="st50"/><circle cx="1095.9" cy="184.2" r=".5" class="st50"/><path d="M1087.4 198.1h17v11.2h-17z" class="st50"/><path d="M1095.8 200.2l-1.5 1.7v7.3h2.9v-7.3zm5.7 0l-1.5 1.7v7.3h2.9v-7.3zm-11.4 0l-1.4 1.7v7.3h2.9v-7.3z" class="st51"/><path d="M1000.9 227.2h126v2.6h-126z" class="st48"/><path d="M1003.5 229.8H1124V247h-120.5z" class="st50"/><path d="M1003.5 229.8H1124v1.9h-120.5z" class="st49"/><path d="M1008.8 247v-10.8l4-2.4 4 2.4V247zm17 0v-10.8l4-2.4 4 2.4V247zm17 0v-10.8l4-2.4 4 2.4V247zm17 0v-10.8l4-2.4 4 2.4V247zm16.9 0v-10.8l4-2.4 4 2.4V247zm17 0v-10.8l4-2.4 4 2.4V247zm17 0v-10.8l4-2.4 4 2.4V247z" class="st51"/><path d="M994.2 247h139v.9h-139z" class="st48"/><path d="M994.5 248h139v10.7h-139z" class="st49"/><path d="M997.6 248.7h1.2v5h-1.2zm2.7 0h1.2v5h-1.2zm2.5 0h1.2v5h-1.2zm4.6 0h1.2v5h-1.2zm2.7 0h1.2v5h-1.2zm2.4 0h1.2v5h-1.2zm4.4 0h1.2v5h-1.2zm2.8 0h1.2v5h-1.2zm2.4 0h1.2v5h-1.2zm4.6 0h1.2v5h-1.2zm2.7 0h1.2v5h-1.2zm2.5 0h1.2v5h-1.2zm4.6 0h1.2v5h-1.2zm2.7 0h1.2v5h-1.2zm2.5 0h1.2v5h-1.2zm4.6 0h1.2v5h-1.2zm2.7 0h1.2v5h-1.2zm2.5 0h1.2v5h-1.2zm4.3 0h1.2v5h-1.2zm2.7 0h1.2v5h-1.2zm2.5 0h1.2v5h-1.2zm4.6 0h1.2v5h-1.2zm2.7 0h1.2v5h-1.2zm2.5 0h1.2v5h-1.2zm4.2 0h1.2v5h-1.2zm2.7 0h1.2v5h-1.2zm2.5 0h1.2v5h-1.2zm4.6 0h1.2v5h-1.2zm2.7 0h1.2v5h-1.2zm2.5 0h1.2v5h-1.2zm4.4 0h1.2v5h-1.2zm2.7 0h1.2v5h-1.2zm2.4 0h1.2v5h-1.2zm4.7 0h1.2v5h-1.2zm2.7 0h1.2v5h-1.2zm2.4 0h1.2v5h-1.2zm4.4 0h1.2v5h-1.2zm2.7 0h1.2v5h-1.2zm2.4 0h1.2v5h-1.2zm4.7 0h1.2v5h-1.2zm2.7 0h1.2v5h-1.2zm2.4 0h1.2v5h-1.2z" class="st51"/><path d="M1007.6 207.5s2.7-1.5 3.4-2.4h1.2s1.5 1.8 3.3 2.2l-7.9.2z" class="st48"/><path d="M1011.8 206.8c-10.1 0-8.5 9.1-8.5 9.1h16.9c.1 0 1.7-9.2-8.4-9.1z" class="st49"/><path d="M1003.2 214.6c0 .8.1 1.3.1 1.3h16.9s.1-.5.1-1.3h-17.1zm7.9-9.5l.5-7.2.7 7.2z" class="st48"/><circle cx="1011.7" cy="204.6" r=".8" class="st50"/><circle cx="1011.7" cy="202" r=".5" class="st50"/><path d="M1003.2 215.9h17v11.2h-17z" class="st50"/><path d="M1011.5 218.1l-1.4 1.7v7.3h2.9v-7.3zm5.7 0l-1.4 1.7v7.3h2.9v-7.3zm-11.3 0l-1.5 1.7v7.3h3v-7.3z" class="st51"/><path d="M1111.4 207.5s2.7-1.5 3.4-2.4h1.2s1.5 1.8 3.3 2.2l-7.9.2z" class="st48"/><path d="M1115.6 206.8c-10.1 0-8.5 9.1-8.5 9.1h16.9c.1 0 1.7-9.2-8.4-9.1z" class="st49"/><path d="M1107 214.6c0 .8.1 1.3.1 1.3h16.9s.1-.5.1-1.3H1107zm7.8-9.5l.5-7.2.8 7.2z" class="st48"/><circle cx="1115.5" cy="204.6" r=".8" class="st50"/><circle cx="1115.5" cy="202" r=".5" class="st50"/><path d="M1107 215.9h17v11.2h-17z" class="st50"/><path d="M1115.3 218.1l-1.5 1.7v7.3h3v-7.3zm5.7 0l-1.4 1.7v7.3h2.9v-7.3zm-11.3 0l-1.5 1.7v7.3h3v-7.3z" class="st51"/><g id="square_tower_1_"><path d="M1300.6 190h127.1v68.1h-127.1z" class="st14"/><path d="M1306.5 192.9h26.6v30.5h-26.6z" class="st52"/><path d="M1314.3 204.8c0-1.8 2-3.6 5.5-4.6 3.4 1 5.5 2.7 5.5 4.6v2.1h-10.9v-2.1z" class="st32"/><path d="M1314.3 206.9h10.9v9.2h-10.9z" class="st30"/><path d="M1348 192.9h26.6v30.5H1348z" class="st52"/><path d="M1355.8 204.8c0-1.8 2-3.6 5.5-4.6 3.4 1 5.5 2.7 5.5 4.6v2.1h-10.9v-2.1z" class="st32"/><path d="M1355.8 206.9h10.9v9.2h-10.9z" class="st30"/><path d="M1389.5 192.9h26.6v30.5h-26.6z" class="st52"/><path d="M1397.3 204.8c0-1.8 2-3.6 5.5-4.6 3.4 1 5.5 2.7 5.5 4.6v2.1h-10.9v-2.1z" class="st32"/><path d="M1397.3 206.9h10.9v9.2h-10.9zm-96.7 16.2h127.1v2.5h-127.1zm0-33.1h127.1v2.5h-127.1z" class="st30"/><g id="flag_1_"><path d="M1315.3 137.4h1.3v23.2h-1.3z" class="st32"/><path d="M1322.3 137.3c.7.3 1.4.6 2.2 1 1.3.7 2.7 1.4 4.3 1.8h.1c.2 0 .5.1.7.1.9 0 1.6-.2 2.3-.5v4.8c-3 1.3-7 .6-11.6-1.9 0 0-.1 0-.1-.1-.9-.4-1.8-.6-2.7-.6-.7 0-1.5.1-2.3.4v-4.9c2.3-.8 4.8-.8 7.1-.1z" class="st52"/></g><path d="M1335.9 154.1v6.4h-6v-6.4h-2.8v6.4h-6v-6.4h-2.8v6.4h-6v-6.4h-2.7v6.4h-6.1v-6.4h-2.9V190h38.3v-35.9z" class="st30"/><path d="M1289 185h150.3v5.1H1289z" class="st52"/><path d="M1368.8 258.2h-14v-15.1c0-6 2.7-11.7 7-14.9 4.3 3.2 7 8.9 7 14.9v15.1zm-52-22.1c0-1.8 1.3-3.6 3.6-4.6 2.2 1 3.6 2.7 3.6 4.6v2.1h-7.2v-2.1z" class="st32"/><path d="M1316.8 238.2h7.2v9.2h-7.2z" class="st30"/><path d="M1399.7 236.1c0-1.8 1.3-3.6 3.6-4.6 2.2 1 3.6 2.7 3.6 4.6v2.1h-7.2v-2.1z" class="st32"/><path d="M1399.7 238.2h7.2v9.2h-7.2z" class="st30"/><path d="M1289 171.4h13.7v13.7H1289z" class="st52"/><path d="M1302.6 180.7h13.7v4.4h-13.7zm13.7-9.3h13.7v13.7h-13.7zm13.7 9.3h13.7v4.4H1330z" class="st52"/><path d="M1343.6 171.4h13.7v13.7h-13.7zm13.7 9.3h13.7v4.4h-13.7zm13.7-9.3h13.7v13.7H1371z" class="st52"/><path d="M1384.6 180.7h13.7v4.4h-13.7zm13.7-9.3h13.7v13.7h-13.7zm13.7 9.3h13.7v4.4H1412z" class="st52"/><path d="M1425.6 171.4h13.7v13.7h-13.7z" class="st52"/></g><path d="M1175.5 279.1l4 13.9h5.9s.5-2.7-3.1-2.7l4.2-10.5-11-.7z" class="st32"/><path d="M1164.8 295.8s-14-25.2-6.9-39.9 35.4-25.2 69.4-6.4l4-4.8s2.7 1.4 1.7 5.9l4.3-3.1s3.9 4.4-2.4 8.2c0 0 11.6 13.8 11.5 22.9 0 0-1 7.1-5.9.9 0 0-3.3-5-6.9-3.6-3.6 1.4-9.5-2.5-9.5-2.5l-4.8.7 5 12.7s3.2-2 4.4.6l-3.7 3.9s-10.4-5.1-11.6-8.8l-6.3 10.9s2.2.9 2.1 2.7h-6.1l-1.2-16.7s-22.4 2.5-27.6-.9l-6.5 14.8s2.7-.3 2.9 2.7l-5.9-.2z" class="st45"/><defs><path id="SVGID_5_" d="M1209.2 234.7s-23.4 5.7-12 49c11.4 43.3 33 15 33 15l23.4-16.3-6-45.3-38.4-2.4z"/></defs><clipPath id="SVGID_2_"><use xlink:href="#SVGID_5_" overflow="visible"/></clipPath><path d="M1164.8 295.7s-14-25.2-6.9-39.9 35.4-25.2 69.4-6.4l4-4.8s2.7 1.4 1.7 5.9l4.3-3.1s3.9 4.4-2.4 8.2c0 0 11.6 13.8 11.5 22.9 0 0-1 7.1-5.9.9 0 0-3.3-5-6.9-3.6-3.6 1.4-9.5-2.5-9.5-2.5l-4.8.7 5 12.7s3.2-2 4.4.6l-3.7 3.9s-10.4-5.1-11.6-8.8l-6.3 10.9s2.2.9 2.1 2.7h-6.1l-1.2-16.7s-22.4 2.5-27.6-.9l-6.5 14.8s2.7-.3 2.9 2.7l-5.9-.2z" class="st53"/><defs><path id="SVGID_7_" d="M1153.6 265.7s20.8-11 22.1 16-9.1 18.2-9.1 18.2l-12.6-17.1-.4-17.1z"/></defs><clipPath id="SVGID_4_"><use xlink:href="#SVGID_7_" overflow="visible"/></clipPath><path d="M1164.8 295.8s-14-25.2-6.9-39.9 35.4-25.2 69.4-6.4l4-4.8s2.7 1.4 1.7 5.9l4.3-3.1s3.9 4.4-2.4 8.2c0 0 11.6 13.8 11.5 22.9 0 0-1 7.1-5.9.9 0 0-3.3-5-6.9-3.6-3.6 1.4-9.5-2.5-9.5-2.5l-4.8.7 5 12.7s3.2-2 4.4.6l-3.7 3.9s-10.4-5.1-11.6-8.8l-6.3 10.9s2.2.9 2.1 2.7h-6.1l-1.2-16.7s-22.4 2.5-27.6-.9l-6.5 14.8s2.7-.3 2.9 2.7l-5.9-.2z" class="st54"/><circle cx="1234.5" cy="265.1" r="2.4" class="st45"/><g id="hornbill_1_"><path d="M1404.2 95.7s2.3-12.7-4.8-19.2-11.8-9.8-27.3 2c0 0-18.8 15.4-17.1 32.2 0 0 14.3-15.5 22.6-18.3 0 0 7-4 10.3-.9 0 0-3.5 13.3 13.7 19.9s2.6-15.7 2.6-15.7z" class="st32"/><path d="M1362.8 85c-1.3.2-2.7.2-4 0h-.1c-.7-.1-1.3-.2-2-.4s-1.5-.5-2.2-.8c-2.6-1.2-4.8-3-6.4-5.3-1.6-2.4-2.6-5.3-2.7-8.2V70c0-1 .5-1.7.8-1.7.2 0 .3.2.5.5.1.1.1.3.1.5 0 .1 0 .2.1.2.3.8.8 1.6 1.4 2.3 2.2 2.3 6.4 3.4 11.6 3 2.8-.2 5.7-.8 8.6-1.7 3-1 5.8-2.4 8.1-3.9.3-.1.5-.3.8-.4 1.7-.9 3.8-.4 4.8 1.2l1.5 2.5c.4.7.5 1.6.3 2.4-.3 1-1 1.9-2.1 2.5-.5.3-1 .5-1.6.8-1.1.2-2.1.4-3.2.7l-.2.1c-.4.1-.8.2-1.2.4-2.2.7-4.5 1.8-6.6 3.2-.3.2-.6.4-1 .7-1.5.8-3.4 1.4-5.3 1.7z" class="st43"/><path d="M1379.3 91.7c1.3-2.5 4.4-9.3 2.7-13.6-2.1-5.3-20.6 16.5-20.6 16.5l-6.3 16.2s14.3-15.5 22.6-18.3c0 0 .6-.4 1.6-.8z" class="st23"/><path d="M1373 87.2c1.4-.8 2.3-1.4 2.8-1.8.4-.2.7-.4 1.1-.6.8-.4 1.6-.9 2.5-1.3 1.5-2 2.5-4 2.6-5.3 0-.7-.1-1.2-.4-1.4-.1-.1-.2-.1-.3-.1-1 .2-2.1.4-3.2.7h-.2c-.4.1-.8.3-1.2.4-2.3.7-4.6 1.9-6.8 3.3-.9.6-1.7 1.3-2.5 1.9-5.1 5.5-12.6 15.3-12.4 25.8v1c0 .3 0 .6.1.8 0 .2 8.2-17.9 17.9-23.4z" class="st22"/><ellipse cx="1392" cy="82.6" transform="rotate(-18.522 1391.795 82.56)" class="st45" rx="2" ry="2"/><path d="M1426.8 102.1l-10-19.4s-.8-6.6 5.2-8.1 7.7 3.6 7.7 3.6.7-4.3 6.6-5.1 7.1 5.8 7.2 6.5c.1.7 2.7-4.1 8-2.1 5.3 2.1 6.7 8.1-.8 15.3l-12.5 16-11.4-6.7z" class="st45"/><path d="M1421.1 91s3.1-6.5 9.8-2.7c0 0 3.8-4.7 9.8.8 0 0 7.2-2.2 9.6 4.6l.9-1.1s-2.3-7.5-10-4.6c0 0-4-6.5-10.5-1.2 0 0-6.8-3.7-10.3 2.9l.7 1.3z" class="st12"/><path d="M1419.6 88.2s3.7-7.6 11.2-3.4c0 0 4.2-5.3 10.8.8 0 0 8.2-1.8 10.9 5.6l1-1.3s-2.8-9.1-11.3-6c0 0-4.5-6.7-11.7-1 0 0-7.8-3.7-11.7 3.5l.8 1.8z" class="st12"/><path d="M1454.4 88.6c3.2-5.2 1.5-9.4-2.8-11-5.3-2.1-7.9 2.7-8 2.1-.1-.7-1.4-7.3-7.2-6.5s-6.6 5.1-6.6 5.1-1.7-5-7.7-3.6c-6 1.5-5.2 8.1-5.2 8.1l.9 1.7c1.8-3.1 5.9-7.9 12.3-2.6 0 0 7.5-8.3 12.8 1.1-.1-.2 7.9-5.6 11.5 5.6z" class="st43"/><path d="M1438.3 108.9l10.5-13.5c-.8-3.5-4.3-5.6-7.7-4.9-.3.1-.5.1-.7.2-1.5-1.8-3.9-2.7-6.4-2.2-1.1.2-2.1.7-2.8 1.4-1.4-.8-3-1.1-4.7-.7-2 .4-3.6 1.7-4.5 3.5l4.9 9.4c.2 0 .3 0 .5.1l.1.3 8.5 5 2.3 1.4z" class="st12"/><path d="M1389.9 107.6s1.9 36.4 41 22.8c39.1-13.7-22.5-35.5-22.5-35.5l-18.5 12.7z" class="st32"/><path d="M1409.7 94.7s-10.6 38.2 28.2 35.9c0 0 11-1.3 18.7-15.6l-46.5-21.8-.4 1.5z" class="st43"/><path d="M1411.6 93.9s-6.5 28.3 21.2 29.2c0 0 12.1.1 18.2-10.8l-39.4-18.4z" class="st56"/><path d="M1434.7 115.2c5.7-.9 9.2-2.8 11.2-5.2l-32.8-15.4c.7 5.1 3.8 23.4 21.6 20.6z" class="st32"/><path d="M1409.4 96.5l-20.1 12.9c-1 .6-2.4.3-3-.7l-.3-.5c-.6-1-.3-2.4.7-3l20.1-12.9c1-.6 2.4-.3 3 .7l.3.5c.6 1 .3 2.4-.7 3z" class="st56"/><path d="M1415.6 144c-.4-.3-1-1-1.2-1.6-.7-1.8-.3-4.5 1.1-7.1.7-1.2 1.5-2.4 2.4-3.3.5-.1 1.1-.2 1.6-.3-.4.5-.7 1.1-1.1 1.7v.1c-.6 1.2-1 2.3-1.2 3.5-.6 1.4-1 2.8-1 4-.1-.5-.2-2.5-.2-3.2l-.1.2s-.4.8-.5 1.1c-.6 1.8-.3 3.7.2 4.9z" class="st32"/><path d="M1421.2 134.5s0 .1-.1.1c-1.4 2.7-1.8 5.5-1 7.5.4 1 1.1 1.8 2 2.1.3.1.5.2.8.2-.8.2-1.6.2-2.2 0-1.4-.5-2.1-2-2-4.1V139s-.3.7-.5 1.6c-.5 1.9-.1 3.7.2 4.5-.4-.3-1-1-1.2-1.6-.7-1.8-.3-4.5 1.1-7.1 1.3-2.5 3.3-4.5 5.3-5.4.1 0 .2 0 .3-.1-1.1 1.1-2 2.3-2.7 3.6z" class="st32"/></g><path d="M214.1 62.5h-9.3c-1.3-2.5-3.9-4.2-6.9-4.2h-20c-4.3 0-7.8 3.5-7.8 7.8H154c-1.4 0-2.6 1.2-2.6 2.6s1.2 2.6 2.6 2.6h18c1.4 1.6 3.5 2.7 5.9 2.7h20c2.6 0 5-1.3 6.4-3.3h9.9c2.2 0 4.1-1.8 4.1-4.1s-2-4.1-4.2-4.1zM99.8 97.2H89.7c-2.3 0-4.2 1.9-4.2 4.2h-4.3c-1.1 0-2.1.9-2.1 2.1 0 1.1.9 2.1 2.1 2.1h18.7c2.3 0 4.2-1.9 4.2-4.2s-2-4.2-4.3-4.2zm14.9 5.6h-7c-1 0-1.8-.8-1.8-1.8s.8-1.8 1.8-1.8h7c1 0 1.8.8 1.8 1.8 0 .9-.8 1.8-1.8 1.8zm317.8-45.4h-13.9c-3.1 0-5.7 2.6-5.7 5.7H407c-1.6 0-2.8 1.3-2.8 2.8 0 1.6 1.3 2.8 2.8 2.8h25.5c3.1 0 5.7-2.6 5.7-5.7 0-3-2.6-5.6-5.7-5.6zm20.9 7.6h-10.9c-1 0-1.8-.8-1.8-1.8v-1.3c0-1 .8-1.8 1.8-1.8h10.9c1 0 1.8.8 1.8 1.8v1.3c0 1-.8 1.8-1.8 1.8zm61.8 18h-14.7v-3.2c0-6-4.9-11-11-11h-15.3c-5.1 0-9.4 3.6-10.6 8.3h-18.8c-3 0-5.4 2.4-5.4 5.4s2.4 5.4 5.4 5.4h18.9c1.3 4.5 5.6 7.9 10.5 7.9h40.9c3 0 5.4-2.4 5.4-5.4v-2c.1-3-2.4-5.4-5.3-5.4zm258.6-2.4h-9.3c-1.3-2.5-3.9-4.2-6.9-4.2h-20c-4.3 0-7.8 3.5-7.8 7.8h-16.1c-1.4 0-2.6 1.2-2.6 2.6s1.2 2.6 2.6 2.6h18.1c1.4 1.6 3.5 2.7 5.9 2.7h20c2.6 0 5-1.3 6.4-3.3h9.9c2.2 0 4.1-1.8 4.1-4.1s-2.1-4.1-4.3-4.1zm415.1 24.7h-18.1v-4c0-7.4-6.1-13.5-13.5-13.5h-18.8c-6.3 0-11.6 4.4-13.1 10.2h-23.1c-3.6 0-6.6 3-6.6 6.6 0 3.6 3 6.6 6.6 6.6h23.3c1.7 5.6 6.8 9.7 12.9 9.7h50.3c3.6 0 6.6-3 6.6-6.6v-2.4c.1-3.6-2.9-6.6-6.5-6.6zm373.2 23.5h-13.9c-3.1 0-5.7 2.6-5.7 5.7h-5.9c-1.6 0-2.8 1.3-2.8 2.8 0 1.6 1.3 2.8 2.8 2.8h25.5c3.1 0 5.7-2.6 5.7-5.7 0-3-2.5-5.6-5.7-5.6zm21 7.6h-10.9c-1 0-1.8-.8-1.8-1.8v-1.3c0-1 .8-1.8 1.8-1.8h10.9c1 0 1.8.8 1.8 1.8v1.3c0 1-.8 1.8-1.8 1.8zm62.8 21.1h-14.7v-3.2c0-6-4.9-11-11-11h-15.3c-5.1 0-9.4 3.6-10.6 8.3h-18.8c-3 0-5.4 2.4-5.4 5.4s2.4 5.4 5.4 5.4h18.9c1.3 4.5 5.6 7.9 10.5 7.9h40.9c3 0 5.4-2.4 5.4-5.4v-2c0-3-2.4-5.4-5.3-5.4zm72.8-67.6h-9.3c-1.3-2.5-3.9-4.2-6.9-4.2h-20c-4.3 0-7.8 3.5-7.8 7.8h-16.1c-1.4 0-2.6 1.2-2.6 2.6s1.2 2.6 2.6 2.6h18.1c1.4 1.6 3.5 2.7 5.9 2.7h20c2.6 0 5-1.3 6.4-3.3h9.9c2.2 0 4.1-1.8 4.1-4.1s-2.1-4.1-4.3-4.1z" class="st45"/></g><g id="Layer_5"><path d="M1630.3 327.7l15.2 23.2h72.2l15.3-23.2z" class="st26"/><path d="M1641 344l4.5 6.9h72.2l4.6-6.9z" class="st58"/><path d="M1683 297.6h14.8v14.8H1683z" class="st66"/><path d="M1697.7 297.6h14.8v14.8h-14.8z" class="st59"/><path d="M1683 312.3h14.8v14.8H1683z" class="st59"/><path d="M1697.7 312.3h14.8v14.8h-14.8z" class="st66"/><path d="M1712.5 312.3h14.8v14.8h-14.8z" class="st23"/><path d="M1639.1 312.6h37.8v14.8h-37.8z" class="st66"/><path d="M1642.3 314.6h31.3v12.8h-31.3z" class="st59"/></g></svg>